<svg width="32" height="32" viewBox="0 0 32 32" fill="none" xmlns="http://www.w3.org/2000/svg">
<path d="M28.6338 6.80803C27.5334 5.73066 25.7606 5.73066 24.6679 6.80803L12.3867 18.9303L7.78539 14.3974C6.68494 13.32 4.91222 13.32 3.81952 14.3974C2.72683 15.4824 2.72683 17.2302 3.81952 18.3076L10.1374 24.5311C10.213 24.6285 10.2963 24.724 10.3873 24.8138C11.0577 25.4747 11.9818 25.7326 12.8459 25.5874C13.4116 25.4996 13.956 25.2417 14.39 24.8138C14.4811 24.724 14.5644 24.6285 14.6399 24.5292L28.6338 10.7183C29.7265 9.63325 29.7265 7.88539 28.6338 6.80803Z" fill="#6667AB"/>
</svg>
