<svg width="24" height="24" viewBox="0 0 24 24" fill="none" xmlns="http://www.w3.org/2000/svg">
<path d="M15.764 20C15.4648 20.0003 15.1758 19.8891 14.9511 19.6872L7.42158 12.9503C7.28915 12.8317 7.18303 12.6856 7.11032 12.5217C7.03761 12.3578 7 12.1799 7 11.9999C7 11.8199 7.03761 11.642 7.11032 11.4781C7.18303 11.3142 7.28915 11.1681 7.42158 11.0495L14.9511 4.31258C15.1976 4.09195 15.5198 3.98052 15.8467 4.0028C16.1737 4.02508 16.4785 4.17924 16.6943 4.43138C16.9101 4.68352 17.0191 5.01298 16.9973 5.34728C16.9755 5.68157 16.8247 5.99333 16.5781 6.21396L10.1104 11.9999L16.5775 17.7858C16.7668 17.955 16.9011 18.1793 16.9625 18.4286C17.0238 18.6779 17.0093 18.9404 16.9209 19.1811C16.8324 19.4218 16.6743 19.6291 16.4676 19.7754C16.2609 19.9218 16.0154 20.0001 15.764 20Z" fill="black"/>
</svg>
