<svg width="30" height="30" viewBox="0 0 30 30" fill="none" xmlns="http://www.w3.org/2000/svg">
<path d="M28.4766 27.9078L26.2973 21.3675C27.4443 19.3659 28.05 17.0912 28.05 14.775C28.05 7.45485 22.0952 1.5 14.775 1.5C7.45486 1.5 1.5 7.45485 1.5 14.775C1.5 22.0952 7.45531 28.05 14.775 28.05C16.8635 28.05 18.9407 27.5514 20.7951 26.6064L27.9353 28.4852C27.9735 28.4951 28.0118 28.5 28.05 28.5C28.1724 28.5 28.2921 28.4501 28.3781 28.3578C28.4915 28.2372 28.5293 28.0644 28.4766 27.9078ZM8.70001 16.8C7.70731 16.8 6.90001 15.9927 6.90001 15C6.90001 14.0073 7.70731 13.2 8.70001 13.2C9.69271 13.2 10.5 14.0073 10.5 15C10.5 15.9927 9.69271 16.8 8.70001 16.8ZM14.55 16.8C13.5573 16.8 12.75 15.9927 12.75 15C12.75 14.0073 13.5573 13.2 14.55 13.2C15.5427 13.2 16.35 14.0073 16.35 15C16.35 15.9927 15.5427 16.8 14.55 16.8ZM20.4 16.8C19.4073 16.8 18.6 15.9927 18.6 15C18.6 14.0073 19.4073 13.2 20.4 13.2C21.3927 13.2 22.2 14.0073 22.2 15C22.2 15.9927 21.3927 16.8 20.4 16.8Z" fill="#A2A2A2"/>
</svg>
