<svg width="24" height="24" viewBox="0 0 24 24" fill="none" xmlns="http://www.w3.org/2000/svg">
<path d="M6.5208 13.5919C7.29775 13.5919 7.92759 12.962 7.92759 12.1851C7.92759 11.4081 7.29775 10.7783 6.5208 10.7783C5.74385 10.7783 5.11401 11.4081 5.11401 12.1851C5.11401 12.962 5.74385 13.5919 6.5208 13.5919Z" fill="black"/>
<path d="M11.9999 13.5919C12.7769 13.5919 13.4067 12.962 13.4067 12.1851C13.4067 11.4081 12.7769 10.7783 11.9999 10.7783C11.223 10.7783 10.5931 11.4081 10.5931 12.1851C10.5931 12.962 11.223 13.5919 11.9999 13.5919Z" fill="black"/>
<path d="M11.9999 0C5.41696 0 0.0614014 5.35556 0.0614014 11.9385C0.0614014 14.6837 1.00824 17.3438 2.7343 19.4668C2.24192 20.7075 1.41725 21.7802 0.33528 22.5831C0.16965 22.7061 0.085761 22.9107 0.117599 23.1145C0.149363 23.3184 0.291522 23.4879 0.486695 23.5545C1.35172 23.8501 2.25303 24 3.16566 24C4.6148 24 6.03091 23.6229 7.28007 22.9069C8.77259 23.5508 10.359 23.8772 12 23.8772C18.5829 23.8772 23.9385 18.5215 23.9385 11.9386C23.9385 5.35564 18.5829 0 11.9999 0ZM11.9999 22.7665C10.4213 22.7665 8.89898 22.4339 7.47524 21.7779C7.30554 21.6997 7.10807 21.712 6.9494 21.8107C5.8156 22.5163 4.50714 22.8892 3.16559 22.8892C2.71741 22.8892 2.27228 22.8475 1.83425 22.7645C2.76132 21.8672 3.4642 20.7691 3.89171 19.5403C3.95672 19.3533 3.91733 19.1458 3.7882 18.9958C2.10109 17.0347 1.17202 14.5284 1.17202 11.9385C1.17202 5.96803 6.02943 1.11062 11.9999 1.11062C17.9704 1.11062 22.8278 5.96803 22.8278 11.9385C22.8279 17.9091 17.9705 22.7665 11.9999 22.7665Z" fill="black"/>
<path d="M17.4789 13.5919C18.2559 13.5919 18.8857 12.962 18.8857 12.1851C18.8857 11.4081 18.2559 10.7783 17.4789 10.7783C16.702 10.7783 16.0721 11.4081 16.0721 12.1851C16.0721 12.962 16.702 13.5919 17.4789 13.5919Z" fill="black"/>
</svg>
