<svg width="40" height="40" viewBox="0 0 40 40" fill="none" xmlns="http://www.w3.org/2000/svg">
<path d="M17.4334 9.43604C10.0264 9.43604 4.00004 14.8631 4.00004 21.5333C4.00004 23.8578 4.73268 26.1089 6.12148 28.0572C5.85798 30.9392 5.16048 33.0751 4.15143 34.0847C3.99436 34.2417 3.95509 34.4815 4.05429 34.6804C4.14264 34.8576 4.32296 34.9666 4.51671 34.9666C4.54048 34.9666 4.56476 34.9651 4.58904 34.9614C4.76936 34.9361 8.94558 34.3347 11.9862 32.5925C13.7067 33.2812 15.5377 33.6305 17.4339 33.6305C24.8408 33.6305 30.8672 28.204 30.8672 21.5333C30.8672 14.8626 24.8408 9.43604 17.4334 9.43604Z" fill="#A2A2A2"/>
<path d="M32.8788 23.6217C34.2676 21.6728 35.0003 19.4212 35.0003 17.0972C35.0003 10.4266 28.9744 5 21.5669 5C17.3065 5 13.3168 6.85587 10.8079 9.867C12.7944 8.9339 15.0466 8.40277 17.4336 8.40277C25.4104 8.40277 31.9003 14.2928 31.9003 21.5333C31.9003 24.3781 30.8953 27.0121 29.195 29.1645C31.7504 30.1395 34.2857 30.5078 34.4113 30.5254C34.4355 30.5285 34.4598 30.5306 34.4836 30.5306C34.6773 30.5306 34.8577 30.4216 34.946 30.2443C35.0452 30.0454 35.0059 29.8057 34.8489 29.6486C33.8393 28.6391 33.1418 26.5032 32.8788 23.6217Z" fill="#A2A2A2"/>
</svg>
