<svg width="24" height="24" viewBox="0 0 24 24" fill="none" xmlns="http://www.w3.org/2000/svg">
<path d="M12.5642 19.2402L11.8658 18.967L12.5642 19.2402ZM4.02909 13.8878L3.29815 14.0558L4.02909 13.8878ZM4.02571 8.97642L3.29477 8.80841L4.02571 8.97642ZM20.4976 9.19741L21.2286 9.0294L20.4976 9.19741ZM20.4976 13.6521L19.7667 13.4841L20.4976 13.6521ZM9.56593 20.5733L9.86076 19.8837L9.56593 20.5733ZM9.93953 3.02141L10.1141 3.75081L9.93953 3.02141ZM14.533 3.02141L14.3584 3.75081L14.533 3.02141ZM9.44777 20.5228L9.15294 21.2124L9.44777 20.5228ZM14.9141 3.11264L15.0887 2.38325L14.9141 3.11264ZM20.4088 8.81088L19.6779 8.97889L20.4088 8.81088ZM9.71648 3.07481L9.54188 2.34541L9.71648 3.07481ZM8.94628 8.05793C8.53207 8.05793 8.19628 8.39372 8.19628 8.80793C8.19628 9.22215 8.53207 9.55793 8.94628 9.55793V8.05793ZM14.9779 9.55793C15.3922 9.55793 15.7279 9.22215 15.7279 8.80793C15.7279 8.39372 15.3922 8.05793 14.9779 8.05793V9.55793ZM8.94628 11.5141C8.53207 11.5141 8.19628 11.8499 8.19628 12.2641C8.19628 12.6783 8.53207 13.0141 8.94628 13.0141V11.5141ZM12.7846 13.0141C13.1988 13.0141 13.5346 12.6783 13.5346 12.2641C13.5346 11.8499 13.1988 11.5141 12.7846 11.5141V13.0141ZM9.89108 3.8042L10.1141 3.75081L9.76493 2.29202L9.54188 2.34541L9.89108 3.8042ZM14.3584 3.75081L14.7395 3.84204L15.0887 2.38325L14.7076 2.29202L14.3584 3.75081ZM9.86076 19.8837L9.7426 19.8332L9.15294 21.2124L9.2711 21.2629L9.86076 19.8837ZM19.6779 8.97889L19.7667 9.36542L21.2286 9.0294L21.1397 8.64287L19.6779 8.97889ZM14.4221 17.9268H13.3607V19.4268H14.4221V17.9268ZM13.3607 17.9268C12.6824 17.9268 12.1029 18.3608 11.8658 18.967L13.2627 19.5134C13.2906 19.4421 13.342 19.4268 13.3607 19.4268V17.9268ZM4.76003 13.7198C4.41535 12.2202 4.41244 10.6419 4.75665 9.14443L3.29477 8.80841C2.89926 10.5291 2.90311 12.3371 3.29815 14.0558L4.76003 13.7198ZM19.7667 9.36542C20.0778 10.7187 20.0778 12.1308 19.7667 13.4841L21.2286 13.8201C21.5905 12.2457 21.5905 10.6038 21.2286 9.0294L19.7667 9.36542ZM9.2711 21.2629C10.8631 21.9436 12.6391 21.1076 13.2627 19.5134L11.8658 18.967C11.5266 19.834 10.615 20.2061 9.86076 19.8837L9.2711 21.2629ZM10.1141 3.75081C11.5111 3.4164 12.9614 3.4164 14.3584 3.75081L14.7076 2.29202C13.0811 1.90266 11.3915 1.90266 9.76493 2.29202L10.1141 3.75081ZM9.7426 19.8332C7.26453 18.7737 5.39644 16.4884 4.76003 13.7198L3.29815 14.0558C4.03571 17.2645 6.20924 19.9539 9.15294 21.2124L9.7426 19.8332ZM19.7667 13.4841C19.162 16.1147 16.9359 17.9268 14.4221 17.9268V19.4268C17.6818 19.4268 20.4781 17.0851 21.2286 13.8201L19.7667 13.4841ZM14.7395 3.84204C17.16 4.42142 19.0849 6.39932 19.6779 8.97889L21.1397 8.64287C20.4265 5.53984 18.0941 3.10266 15.0887 2.38325L14.7395 3.84204ZM9.54188 2.34541C6.43969 3.088 4.03134 5.60397 3.29477 8.80841L4.75665 9.14443C5.3729 6.46346 7.37384 4.40676 9.89108 3.8042L9.54188 2.34541ZM8.94628 9.55793H14.9779V8.05793H8.94628V9.55793ZM8.94628 13.0141H12.7846V11.5141H8.94628V13.0141Z" fill="white"/>
</svg>
