<svg width="80" height="80" viewBox="0 0 80 80" fill="none" xmlns="http://www.w3.org/2000/svg">
<path d="M40 45.8333C36.2094 45.8333 32.5036 44.7093 29.3516 42.6033C26.1997 40.497 23.743 37.5037 22.2924 34.0013C20.8417 30.4992 20.4621 26.6454 21.2017 22.9274C21.9412 19.2095 23.7667 15.7943 26.4472 13.1138C29.1277 10.4333 32.5428 8.60783 36.2607 7.8683C39.9787 7.12873 43.8327 7.5083 47.3347 8.959C50.837 10.4097 53.8304 12.8663 55.9367 16.0182C58.0427 19.1702 59.1667 22.8759 59.1667 26.6667C59.158 31.7473 57.1357 36.6173 53.543 40.2097C49.9507 43.8023 45.0807 45.8247 40 45.8333ZM40 12.5C37.198 12.5 34.459 13.3309 32.1295 14.8875C29.7998 16.4442 27.984 18.6567 26.9117 21.2453C25.8395 23.8339 25.559 26.6824 26.1056 29.4305C26.6522 32.1785 28.0015 34.7027 29.9827 36.684C31.9639 38.6653 34.488 40.0147 37.2364 40.561C39.9844 41.1077 42.8327 40.8273 45.4214 39.755C48.01 38.6827 50.2227 36.867 51.779 34.5373C53.3357 32.2076 54.1667 29.4686 54.1667 26.6667C54.158 22.9121 52.6624 19.3139 50.0077 16.6591C47.3527 14.0042 43.7547 12.5088 40 12.5Z" fill="#6667AB"/>
<path d="M70 72.5C69.3397 72.4913 68.7087 72.2253 68.2417 71.7583C67.7747 71.2913 67.5087 70.6603 67.5 70C67.4913 63.5933 64.9423 57.4517 60.412 52.9213C55.8817 48.391 49.74 45.842 43.3333 45.8333H36.6667C30.26 45.842 24.1182 48.391 19.588 52.9213C15.0578 57.4517 12.5088 63.5933 12.5 70C12.5 70.663 12.2366 71.299 11.7678 71.7677C11.2989 72.2367 10.663 72.5 10 72.5C9.33697 72.5 8.70107 72.2367 8.23223 71.7677C7.7634 71.299 7.5 70.663 7.5 70C7.50883 62.2673 10.5846 54.8537 16.0525 49.3857C21.5204 43.918 28.9339 40.842 36.6667 40.8333H43.3333C51.066 40.842 58.4797 43.918 63.9477 49.3857C69.4153 54.8537 72.4913 62.2673 72.5 70C72.4913 70.6603 72.2253 71.2913 71.7583 71.7583C71.2913 72.2253 70.6603 72.4913 70 72.5Z" fill="#6667AB"/>
</svg>
