<svg width="12" height="12" viewBox="0 0 12 12" fill="none" xmlns="http://www.w3.org/2000/svg">
<path d="M6 12C9.31371 12 12 9.31371 12 6C12 2.68629 9.31371 0 6 0C2.68629 0 0 2.68629 0 6C0 9.31371 2.68629 12 6 12Z" fill="#FFC843"/>
<path d="M6.00028 10.6666C8.57761 10.6666 10.667 8.57731 10.667 5.99998C10.667 3.42265 8.57761 1.33331 6.00028 1.33331C3.42296 1.33331 1.33362 3.42265 1.33362 5.99998C1.33362 8.57731 3.42296 10.6666 6.00028 10.6666Z" fill="#D38700"/>
<path d="M6.20345 3.51561L6.87265 4.87148C6.90571 4.93828 6.96945 4.98468 7.04318 4.99548L8.53945 5.21295C8.72531 5.24001 8.79945 5.46828 8.66505 5.59935L7.58238 6.65468C7.52905 6.70668 7.50465 6.78175 7.51718 6.85521L7.77278 8.34535C7.80451 8.53041 7.61025 8.67161 7.44411 8.58415L6.10585 7.88055C6.03985 7.84588 5.96105 7.84588 5.89505 7.88055L4.55678 8.58415C4.39051 8.67148 4.19638 8.53041 4.22811 8.34535L4.48371 6.85521C4.49638 6.78175 4.47198 6.70668 4.41851 6.65468L3.33585 5.59935C3.20145 5.46828 3.27558 5.23988 3.46145 5.21295L4.95771 4.99548C5.03145 4.98481 5.09531 4.93841 5.12825 4.87148L5.79745 3.51561C5.88025 3.34721 6.12025 3.34721 6.20345 3.51561Z" fill="#FFC843"/>
</svg>
