<svg width="32" height="32" viewBox="0 0 32 32" fill="none" xmlns="http://www.w3.org/2000/svg">
<path d="M19.9923 15.9464L27.0552 8.88396C28.1727 7.7664 28.1727 5.95473 27.0552 4.83774C25.9388 3.72075 24.126 3.72075 23.0096 4.83774L15.9467 11.9013L8.88375 4.83774C7.76735 3.72075 5.95456 3.72075 4.83816 4.83774C3.72061 5.9553 3.72061 7.76697 4.83816 8.88396L11.9005 15.9464L4.83816 23.0088C3.72061 24.1264 3.72061 25.938 4.83816 27.055C5.39607 27.6141 6.12909 27.8928 6.86096 27.8928C7.59225 27.8928 8.32584 27.6141 8.88375 27.055L15.9467 19.9926L23.0096 27.0556C23.5681 27.6147 24.3005 27.8933 25.0324 27.8933C25.7642 27.8933 26.4973 27.6147 27.0552 27.0556C28.1727 25.938 28.1727 24.1264 27.0552 23.0094L19.9923 15.9464Z" fill="#6667AB"/>
</svg>
