<svg width="20" height="20" viewBox="0 0 20 20" fill="none" xmlns="http://www.w3.org/2000/svg">
<path d="M4.51605 7.54794C4.95205 7.10194 5.55905 7.06694 6.09205 7.54794L10.0001 11.2949L13.9081 7.54794C14.4411 7.06694 15.0491 7.10194 15.4821 7.54794C15.9181 7.99294 15.8901 8.74494 15.4821 9.16294C15.0761 9.58094 10.7871 13.6649 10.7871 13.6649C10.6849 13.7708 10.5625 13.855 10.4271 13.9125C10.2917 13.97 10.1461 13.9996 9.99905 13.9996C9.85196 13.9996 9.70638 13.97 9.57099 13.9125C9.4356 13.855 9.31319 13.7708 9.21105 13.6649C9.21105 13.6649 4.92405 9.58094 4.51605 9.16294C4.10705 8.74494 4.08005 7.99294 4.51605 7.54794Z" fill="black"/>
</svg>
