<svg width="24" height="24" viewBox="0 0 24 24" fill="none" xmlns="http://www.w3.org/2000/svg">
<path d="M4.5 7.85988C4.49978 7.58329 4.57804 7.31323 4.72432 7.08576C4.8706 6.85829 5.07794 6.68426 5.31863 6.58692C5.55931 6.48958 5.82188 6.47357 6.07126 6.54103C6.32063 6.60849 6.54492 6.7562 6.71417 6.96443L12.5001 14.0782L18.286 6.96508C18.5067 6.69387 18.8184 6.52804 19.1527 6.50408C19.487 6.48011 19.8165 6.59998 20.0686 6.83729C20.3208 7.07461 20.4749 7.40994 20.4972 7.76952C20.5195 8.1291 20.408 8.48348 20.1874 8.75468L13.4505 17.0363C13.3319 17.182 13.1858 17.2987 13.0219 17.3787C12.858 17.4586 12.6801 17.5 12.5001 17.5C12.3201 17.5 12.1422 17.4586 11.9783 17.3787C11.8144 17.2987 11.6683 17.182 11.5497 17.0363L4.81279 8.75468C4.61067 8.50736 4.49944 8.18917 4.5 7.85988V7.85988Z" fill="black"/>
</svg>
