<svg width="80" height="80" viewBox="0 0 80 80" fill="none" xmlns="http://www.w3.org/2000/svg">
<path d="M50 68.2333H20.2667C17.249 68.2243 14.3579 67.0197 12.2272 64.8827C10.0965 62.7457 8.89999 59.851 8.90002 56.8333V27.2C8.89999 24.1823 10.0965 21.2877 12.2272 19.1507C14.3579 17.0138 17.249 15.8088 20.2667 15.8H29.1667C29.8297 15.8 30.4656 16.0634 30.9345 16.5322C31.4033 17.001 31.6667 17.6369 31.6667 18.3C31.6667 18.963 31.4033 19.5989 30.9345 20.0677C30.4656 20.5366 29.8297 20.8 29.1667 20.8H20.2667C18.5751 20.8088 16.9558 21.4869 15.7627 22.6862C14.5697 23.8855 13.9 25.5083 13.9 27.2V56.8333C13.8868 57.6793 14.0415 58.5197 14.3551 59.3053C14.6687 60.0913 15.135 60.8073 15.7271 61.4117C16.3192 62.0163 17.0253 62.4973 17.8045 62.827C18.5837 63.157 19.4206 63.329 20.2667 63.3333H50C50.8404 63.3333 51.6727 63.1677 52.4494 62.846C53.2257 62.5247 53.9314 62.053 54.5254 61.4587C55.1197 60.8643 55.5914 60.159 55.9127 59.3823C56.2344 58.606 56.4 57.7737 56.4 56.9333V50.9C56.4 50.237 56.6634 49.601 57.1324 49.1323C57.601 48.6633 58.237 48.4 58.9 48.4C59.563 48.4 60.199 48.6633 60.6677 49.1323C61.1367 49.601 61.4 50.237 61.4 50.9V56.8333C61.4 58.3303 61.105 59.8127 60.5324 61.196C59.9594 62.579 59.1197 63.8357 58.061 64.8943C57.0024 65.953 55.7457 66.7927 54.3627 67.3657C52.9794 67.9383 51.497 68.2333 50 68.2333Z" fill="#6667AB"/>
<path d="M58.7667 29.2333C58.123 29.2257 57.5064 28.9734 57.042 28.5277C56.5777 28.0819 56.3004 27.4761 56.2667 26.8333C56.2164 25.8253 55.9237 24.8443 55.413 23.9737C54.902 23.1032 54.1887 22.3689 53.3334 21.8333C52.403 21.2396 51.3354 20.8952 50.2334 20.8333C49.905 20.8224 49.582 20.7469 49.283 20.6111C48.9837 20.4754 48.7144 20.282 48.49 20.0421C48.2657 19.8023 48.0907 19.5205 47.975 19.213C47.8597 18.9055 47.8057 18.5783 47.8167 18.25C47.8277 17.9217 47.903 17.5987 48.0387 17.2996C48.1747 17.0005 48.368 16.731 48.6077 16.5066C48.8477 16.2822 49.1294 16.1072 49.437 15.9917C49.7444 15.8762 50.0717 15.8224 50.4 15.8333C53.2424 15.94 55.9397 17.1147 57.954 19.1228C59.9684 21.1309 61.1514 23.8247 61.2667 26.6666C61.28 26.995 61.2287 27.3228 61.115 27.6312C61.0017 27.9397 60.8287 28.2228 60.6057 28.4642C60.3827 28.7057 60.1144 28.9009 59.816 29.0386C59.5177 29.1763 59.195 29.2538 58.8667 29.2666L58.7667 29.2333Z" fill="#6667AB"/>
<path d="M43.3333 44.5333H35.1C34.437 44.5333 33.801 44.27 33.3322 43.801C32.8634 43.3323 32.6 42.6963 32.6 42.0333V33.6333C32.6005 32.9705 32.8643 32.335 33.3333 31.8667L50 15.2C50.2296 14.9641 50.5046 14.7767 50.808 14.6487C51.1113 14.5207 51.4373 14.4548 51.7666 14.4548C52.096 14.4548 52.422 14.5207 52.7253 14.6487C53.0286 14.7767 53.3036 14.9641 53.5333 15.2L56.4 18.0667C56.6486 18.3142 56.8426 18.6112 56.969 18.9386C57.0953 19.2659 57.1513 19.6162 57.1333 19.9667C57.4836 19.9508 57.8333 20.0078 58.1603 20.134C58.4873 20.2602 58.7846 20.4529 59.0333 20.7L61.9333 23.5667C62.4013 24.0354 62.6643 24.6708 62.6643 25.3333C62.6643 25.9958 62.4013 26.6312 61.9333 27.1L45.2666 43.7667C45.0133 44.019 44.7113 44.217 44.379 44.349C44.0466 44.4807 43.6906 44.5433 43.3333 44.5333ZM37.4666 39.5333H42.3L56.6666 25.2333L55.5333 24.1333C55.2896 23.8823 55.099 23.5846 54.973 23.2581C54.847 22.9316 54.788 22.5831 54.8 22.2333C54.4496 22.2513 54.0993 22.1952 53.772 22.0689C53.4446 21.9426 53.1473 21.7487 52.9 21.5L51.8 20.4L37.6 34.6667L37.4666 39.5333Z" fill="#6667AB"/>
<path d="M60.2667 27.7333C59.6037 27.7327 58.9684 27.469 58.5 27L55.6 24.1333C55.3564 23.8823 55.1657 23.5846 55.0397 23.2581C54.9137 22.9316 54.8547 22.5831 54.8667 22.2333C54.5164 22.2513 54.166 22.1952 53.8387 22.0689C53.5114 21.9426 53.214 21.7487 52.9667 21.5L50 18.6333C49.5317 18.1646 49.269 17.5292 49.269 16.8666C49.269 16.2041 49.5317 15.5687 50 15.1L58.5 6.66663C58.9687 6.19847 59.604 5.9355 60.2667 5.9355C60.929 5.9355 61.5647 6.19847 62.0334 6.66663L70.3667 15.0333C70.6027 15.2631 70.79 15.5379 70.918 15.8413C71.046 16.1447 71.112 16.4707 71.112 16.8C71.112 17.1293 71.046 17.4553 70.918 17.7587C70.79 18.0621 70.6027 18.3368 70.3667 18.5667L62.0334 27C61.565 27.469 60.9294 27.7327 60.2667 27.7333ZM57.3667 20C57.696 19.9926 58.023 20.0539 58.3274 20.1802C58.6317 20.3065 58.906 20.4949 59.1334 20.7333L60.2667 21.8333L65.0667 17L60.2667 12.0333L55.4 16.8666L56.5 17.9666C56.7487 18.2142 56.9427 18.5112 57.069 18.8386C57.1954 19.1659 57.2514 19.5162 57.2334 19.8667L57.3667 20Z" fill="#6667AB"/>
</svg>
