<svg width="24" height="24" viewBox="0 0 24 24" fill="none" xmlns="http://www.w3.org/2000/svg">
<path d="M20.0278 5.66629H13.8012C13.5167 4.88647 12.99 4.21136 12.2937 3.73387C11.5974 3.25639 10.7656 3 9.91283 3C9.06008 3 8.2283 3.25639 7.53196 3.73387C6.83562 4.21136 6.30897 4.88647 6.02447 5.66629H4.37489C4.01025 5.66629 3.66054 5.8068 3.4027 6.05692C3.14485 6.30704 3 6.64628 3 7C3 7.35372 3.14485 7.69296 3.4027 7.94308C3.66054 8.1932 4.01025 8.33371 4.37489 8.33371H6.02447C6.30897 9.11353 6.83562 9.78864 7.53196 10.2661C8.2283 10.7436 9.06008 11 9.91283 11C10.7656 11 11.5974 10.7436 12.2937 10.2661C12.99 9.78864 13.5167 9.11353 13.8012 8.33371H20.0278C20.3924 8.33371 20.7422 8.1932 21 7.94308C21.2578 7.69296 21.4027 7.35372 21.4027 7C21.4027 6.64628 21.2578 6.30704 21 6.05692C20.7422 5.8068 20.3924 5.66629 20.0278 5.66629Z" fill="black"/>
<path d="M4.37503 18.3337L10.6016 18.3337C10.8861 19.1135 11.4128 19.7886 12.1091 20.2661C12.8055 20.7436 13.6373 21 14.49 21C15.3427 21 16.1745 20.7436 16.8709 20.2661C17.5672 19.7886 18.0939 19.1135 18.3784 18.3337H20.0279C20.3926 18.3337 20.7423 18.1932 21.0001 17.9431C21.258 17.693 21.4028 17.3537 21.4028 17C21.4028 16.6463 21.258 16.307 21.0001 16.0569C20.7423 15.8068 20.3926 15.6663 20.0279 15.6663H18.3784C18.0939 14.8865 17.5672 14.2114 16.8709 13.7339C16.1745 13.2564 15.3427 13 14.49 13C13.6373 13 12.8055 13.2564 12.1091 13.7339C11.4128 14.2114 10.8861 14.8865 10.6016 15.6663L4.37503 15.6663C4.01038 15.6663 3.66067 15.8068 3.40283 16.0569C3.14499 16.307 3.00014 16.6463 3.00014 17C3.00014 17.3537 3.14499 17.693 3.40283 17.9431C3.66067 18.1932 4.01038 18.3337 4.37503 18.3337Z" fill="black"/>
</svg>
