<svg width="40" height="27" viewBox="0 0 40 27" fill="none" xmlns="http://www.w3.org/2000/svg">
<path d="M19.11 21.2917C18.9941 21.2916 18.879 21.2772 18.77 21.2492C18.5598 21.1946 18.3815 21.0917 18.2636 20.9568C18.1457 20.822 18.0952 20.663 18.12 20.5054L18.89 15.4833H13C12.8184 15.4835 12.6401 15.4487 12.4843 15.3825C12.3285 15.3163 12.201 15.2213 12.1157 15.1077C12.0304 14.9941 11.9904 14.8662 11.9999 14.7377C12.0095 14.6092 12.0683 14.4849 12.17 14.3783L20.06 6.01999C20.1848 5.88919 20.3677 5.79166 20.5797 5.74289C20.7917 5.69413 21.0206 5.69692 21.23 5.75082C21.4314 5.80378 21.6034 5.90126 21.7204 6.02883C21.8375 6.15641 21.8935 6.3073 21.88 6.45915L21.11 11.5167H27C27.1817 11.5165 27.36 11.5513 27.5158 11.6175C27.6716 11.6837 27.799 11.7787 27.8844 11.8923C27.9697 12.0059 28.0097 12.1338 28.0002 12.2623C27.9906 12.3908 27.9318 12.515 27.83 12.6217L19.94 20.98C19.8483 21.0761 19.7247 21.1548 19.5799 21.2092C19.4352 21.2635 19.2738 21.2918 19.11 21.2917V21.2917Z" fill="white"/>
</svg>
