<svg width="26" height="26" viewBox="0 0 26 26" fill="none" xmlns="http://www.w3.org/2000/svg">
<path d="M11.9989 25C11.8685 24.9998 11.7391 24.9768 11.6165 24.9318C11.38 24.8443 11.1794 24.6792 11.0469 24.4629C10.9143 24.2465 10.8575 23.9915 10.8854 23.7386L11.7515 15.6819H5.12648C4.92215 15.6822 4.72158 15.6262 4.54633 15.5201C4.37109 15.4139 4.22778 15.2615 4.1318 15.0793C4.03582 14.897 3.9908 14.6918 4.00156 14.4856C4.01233 14.2795 4.07848 14.0802 4.19291 13.9091L13.0675 0.500108C13.2078 0.290266 13.4136 0.133808 13.652 0.0555751C13.8904 -0.022658 14.1479 -0.0181823 14.3835 0.0682918C14.61 0.153249 14.8034 0.309637 14.9351 0.514301C15.0668 0.718966 15.1297 0.961028 15.1146 1.20465L14.2485 9.31825H20.8735C21.0779 9.31794 21.2784 9.37387 21.4537 9.48004C21.6289 9.58621 21.7722 9.7386 21.8682 9.92085C21.9642 10.1031 22.0092 10.3083 21.9984 10.5145C21.9877 10.7206 21.9215 10.9199 21.8071 11.091L12.9325 24.5C12.8293 24.6542 12.6902 24.7805 12.5275 24.8676C12.3647 24.9548 12.1832 25.0003 11.9989 25V25Z" fill="#FC5C7D"/>
</svg>
