<svg width="40" height="34" viewBox="0 0 40 34" fill="none" xmlns="http://www.w3.org/2000/svg">
<path d="M19.11 27.0069C18.9941 27.0068 18.879 26.99 18.77 26.9573C18.5598 26.8937 18.3815 26.7736 18.2636 26.6163C18.1457 26.459 18.0952 26.2735 18.12 26.0896L18.89 20.2305H13C12.8184 20.2308 12.6401 20.1901 12.4843 20.1129C12.3285 20.0357 12.201 19.9249 12.1157 19.7923C12.0304 19.6598 11.9904 19.5105 11.9999 19.3606C12.0095 19.2107 12.0683 19.0658 12.17 18.9414L20.06 9.18999C20.1848 9.03738 20.3677 8.9236 20.5797 8.86671C20.7917 8.80982 21.0206 8.81307 21.23 8.87596C21.4314 8.93774 21.6034 9.05147 21.7204 9.20031C21.8375 9.34914 21.8935 9.52518 21.88 9.70235L21.11 15.6028H27C27.1817 15.6025 27.36 15.6432 27.5158 15.7204C27.6716 15.7976 27.799 15.9085 27.8844 16.041C27.9697 16.1735 28.0097 16.3228 28.0002 16.4727C27.9906 16.6226 27.9318 16.7675 27.83 16.8919L19.94 26.6433C19.8483 26.7555 19.7247 26.8473 19.5799 26.9107C19.4352 26.9741 19.2738 27.0071 19.11 27.0069V27.0069Z" fill="white"/>
</svg>
