<svg width="40" height="40" viewBox="0 0 40 40" fill="none" xmlns="http://www.w3.org/2000/svg">
<path d="M19.9997 5C11.7156 5 5 11.7158 5 19.9996C5 28.2834 11.7156 35 19.9996 35C28.2836 35 34.9997 28.2837 34.9997 19.9996C34.9997 11.7155 28.2837 5 19.9997 5ZM21.0355 21.8338C21.0347 21.8732 21.0288 21.9126 21.0233 21.9521C21.0194 21.9817 21.0176 22.012 21.0109 22.0411C21.0042 22.0714 20.9927 22.1013 20.9829 22.1316C20.9712 22.1682 20.9603 22.2047 20.945 22.2392C20.9421 22.2452 20.9411 22.2516 20.9385 22.2576C20.9159 22.3058 20.8897 22.351 20.861 22.3938C20.8592 22.3964 20.8568 22.399 20.855 22.4016C20.8223 22.4496 20.785 22.4932 20.7458 22.5341C20.7349 22.5453 20.7238 22.5554 20.7123 22.566C20.6778 22.5989 20.6415 22.629 20.6029 22.6565C20.591 22.6651 20.5796 22.6741 20.5671 22.6824C20.5176 22.7148 20.4657 22.7433 20.4117 22.7667C20.4 22.7719 20.3878 22.775 20.3759 22.7797C20.3303 22.7973 20.2841 22.8119 20.2364 22.823C20.2193 22.8271 20.2024 22.8308 20.185 22.8339C20.1238 22.8451 20.0618 22.8528 19.999 22.8528C19.9863 22.8528 19.9733 22.8489 19.9606 22.8484C19.9004 22.8461 19.8408 22.8414 19.7835 22.8292C19.7656 22.8253 19.748 22.8175 19.7301 22.8126C19.6767 22.7981 19.6245 22.782 19.5747 22.7597C19.569 22.7568 19.563 22.7563 19.5573 22.7537L13.8058 20.0408C13.2876 19.7965 13.0656 19.1782 13.3099 18.66C13.5542 18.1421 14.1725 17.9198 14.6907 18.1641L18.9623 20.1785V11.2249C18.9623 10.652 19.4268 10.1875 19.9997 10.1875C20.5726 10.1875 21.0371 10.652 21.0371 11.2249V21.8151H21.0373C21.0373 21.8213 21.0355 21.8275 21.0355 21.8338Z" fill="#A2A2A2"/>
</svg>
