<svg width="24" height="24" viewBox="0 0 24 24" fill="none" xmlns="http://www.w3.org/2000/svg">
<path d="M4.32315 12.9352H15.5998C16.1374 12.9352 16.5732 12.4994 16.5732 11.9619C16.5732 11.4244 16.1374 10.9886 15.5998 10.9886H4.32315L5.5816 9.73018C5.96172 9.35012 5.96172 8.73381 5.5816 8.35369C5.20161 7.97357 4.5853 7.97357 4.20511 8.35369L1.28532 11.2735C1.26273 11.296 1.24145 11.3196 1.22121 11.3442C1.21627 11.3503 1.21206 11.3567 1.20725 11.3629C1.1924 11.3818 1.1778 11.4007 1.16443 11.4207C1.16053 11.4266 1.15736 11.4327 1.15353 11.4386C1.14016 11.4595 1.12705 11.4806 1.11524 11.5026C1.11297 11.507 1.11109 11.5116 1.10882 11.5159C1.09655 11.5397 1.08474 11.5639 1.07443 11.5888C1.07313 11.5918 1.07222 11.5951 1.07099 11.5982C1.06041 11.6244 1.05061 11.6509 1.04231 11.6783C1.0412 11.6817 1.04062 11.6853 1.03965 11.6888C1.0318 11.7156 1.02459 11.7426 1.01908 11.7703C1.01746 11.7786 1.01674 11.7871 1.01525 11.7954C1.01123 11.8184 1.0072 11.8413 1.00493 11.8648C1.00162 11.8969 1 11.9293 1 11.9619C1 11.9945 1.00162 12.0269 1.00493 12.0591C1.0072 12.0828 1.01136 12.106 1.01531 12.1292C1.01674 12.1372 1.01746 12.1455 1.01908 12.1534C1.02466 12.1814 1.0318 12.2087 1.03971 12.2358C1.04069 12.239 1.04127 12.2423 1.04224 12.2455C1.05061 12.273 1.06041 12.2998 1.07112 12.3262C1.07229 12.3291 1.07313 12.3322 1.07436 12.335C1.08474 12.3601 1.09662 12.3844 1.10901 12.4083C1.11115 12.4125 1.11297 12.417 1.11518 12.4212C1.12712 12.4433 1.14029 12.4646 1.15385 12.4857C1.15748 12.4914 1.1606 12.4974 1.16436 12.503C1.1778 12.5231 1.19252 12.5421 1.20732 12.5611C1.21206 12.5672 1.21627 12.5736 1.22114 12.5796C1.24145 12.6042 1.26273 12.6278 1.28525 12.6503L4.20505 15.5701C4.39511 15.7602 4.64422 15.8552 4.89332 15.8552C5.14243 15.8552 5.39154 15.7602 5.58153 15.5701C5.96165 15.19 5.96165 14.5737 5.58153 14.1936L4.32315 12.9352Z" fill="black"/>
<path d="M14.4514 4C11.7946 4 9.32269 5.31802 7.839 7.5256C7.53922 7.97171 7.65783 8.57647 8.10395 8.87632C8.55012 9.17611 9.15482 9.05762 9.45473 8.61138C10.5761 6.94277 12.444 5.9466 14.4514 5.9466C17.7682 5.94666 20.4666 8.64506 20.4666 11.9619C20.4666 15.2788 17.7682 17.9772 14.4514 17.9772C12.4499 17.9772 10.585 16.9855 9.46285 15.3244C9.16183 14.879 8.55693 14.7619 8.11141 15.0628C7.66601 15.3638 7.54882 15.9688 7.84978 16.4142C9.3345 18.6118 11.8023 19.9238 14.4514 19.9238C18.8415 19.9238 22.4133 16.3522 22.4133 11.9619C22.4133 7.57167 18.8415 4 14.4514 4Z" fill="black"/>
</svg>
