<svg width="318" height="64" viewBox="0 0 318 64" fill="none" xmlns="http://www.w3.org/2000/svg">
<path d="M87.45 4.10669C86.708 4.21335 85.33 4.42669 84.429 4.58669L82.68 4.85335V30.08C82.68 58.0267 82.627 57.6534 86.072 60.6934C89.093 63.36 93.439 64.1067 98.368 62.88C99.64 62.56 100.7 62.0267 100.7 61.6534C100.7 61.3334 100.276 59.52 99.746 57.6C98.845 54.4534 98.633 54.1334 97.202 53.9734C96.354 53.8667 95.347 53.5467 95.029 53.2267C94.499 52.8 94.34 47.1467 94.34 28.2134V3.73335L91.584 3.78669C90.047 3.84002 88.192 3.94669 87.45 4.10669Z" fill="white"/>
<path d="M219.95 4.05328C219.526 4.10662 217.989 4.37328 216.611 4.53328L214.067 4.85328L214.226 30.0266L214.385 55.2L215.604 57.76C217.035 60.64 219.897 62.6133 223.448 63.2C225.674 63.52 231.504 62.72 232.193 61.9733C232.352 61.76 232.034 59.8933 231.451 57.76C230.391 53.9733 230.391 53.92 228.483 53.76L226.575 53.6L226.416 28.64L226.31 3.73328L223.501 3.78662C222.017 3.83995 220.374 3.94662 219.95 4.05328Z" fill="white"/>
<path d="M285.67 2.45333C285.246 2.50666 283.762 2.77333 282.384 2.93333L279.84 3.25333V31.7867V60.2667H285.935H292.03V31.2V2.13333L289.274 2.18666C287.737 2.24 286.094 2.34666 285.67 2.45333Z" fill="white"/>
<path d="M163.452 20.2133C160.113 20.8 155.608 23.2533 153.435 25.7066C152.322 26.88 150.732 29.44 149.778 31.4133C148.188 34.7733 148.135 35.2533 148.135 41.6C148.135 49.0666 148.612 50.9866 151.421 55.3066C155.661 61.76 164.883 64.9066 173.098 62.72C176.172 61.92 181.26 59.3066 181.26 58.56C181.26 58.1866 177.762 53.0133 176.543 51.6266C176.331 51.4133 175.006 51.84 173.628 52.5333C168.54 55.1466 163.611 53.8666 161.385 49.3333C160.537 47.5733 160.325 46.1333 160.325 41.6C160.378 32.8533 162.392 29.44 167.957 28.9067C170.289 28.6933 172.091 29.2267 176.066 31.36C176.278 31.4666 177.55 30.0266 178.875 28.16L181.313 24.8L180.094 23.7866C176.543 20.8 169.017 19.2 163.452 20.2133Z" fill="white"/>
<path d="M247.51 20.2133C244.913 20.5866 238.5 22.2933 238.076 22.6666C237.97 22.7733 238.447 24.5333 239.083 26.6666C240.196 29.9733 240.461 30.3999 241.415 30.1333C252.863 26.7733 258.11 28.1599 258.11 34.6666V36.7999H254.4C248.252 36.7999 242.475 38.3466 239.136 40.8533C234.472 44.4799 233.465 52.5866 237.069 57.9733C239.507 61.5466 242.846 63.1466 248.04 63.1466C252.757 63.0933 255.884 61.9199 258.587 59.0399L260.389 57.1199L261.502 58.8266C262.721 60.6933 265.53 62.2933 268.286 62.7199L270.035 63.0399L271.201 59.4133L272.42 55.7866L271.201 54.5066C270.088 53.2799 270.035 52.7466 269.77 41.1733C269.505 30.1866 269.346 28.8533 268.339 26.9333C265.954 22.3466 262.297 20.4266 255.195 20.0533C252.545 19.9466 249.1 19.9999 247.51 20.2133ZM258.11 47.1466C258.11 51.6799 257.156 53.3866 254.082 54.3999C249.789 55.8399 246.715 53.8133 246.715 49.5999C246.715 45.2799 249.365 43.3599 255.354 43.2533L258.11 43.1999V47.1466Z" fill="white"/>
<path d="M105.47 37.44C105.47 46.6133 105.682 54.4533 106 55.52C108.385 64.16 119.462 66.1867 126.723 59.36L129.161 57.0667L129.532 59.7333L129.903 62.4H134.885H139.92V41.8667V21.3333H134.09H128.26V35.6267V49.9733L126.405 51.8933C123.225 55.2 119.568 55.36 118.084 52.2667C117.236 50.6133 117.13 48.64 117.13 35.84V21.3333H111.3H105.47V37.44Z" fill="white"/>
<path d="M298.655 30.5067L292.613 39.68L295.528 45.0133C297.118 48 299.768 52.96 301.464 56.1067L304.485 61.8667H311.216H317.894L311.269 50.4L304.644 38.9867L308.778 32.96C311.057 29.6533 313.813 25.6533 314.926 24.1067L316.993 21.3333H310.845H304.75L298.655 30.5067Z" fill="white"/>
<path d="M192.655 32.5333C191.383 33.9733 191.489 36.0533 192.92 37.6533L194.139 38.9333L192.92 40.2133C190.535 42.8267 191.966 46.4 195.411 46.4C196.948 46.4 197.743 45.8667 200.605 42.8267C203.096 40.16 203.891 39.04 203.52 38.4533C203.308 37.9733 201.665 36.2133 199.916 34.5067C196.365 31.1467 194.404 30.6133 192.655 32.5333Z" fill="white"/>
<path d="M6.62503 1.28799C2.33203 3.20799 0.530029 6.56799 0.530029 12.808V17.128L5.67103 16.968L10.812 16.808L13.303 12.7547L15.794 8.70132L13.356 4.59466C10.653 0.221323 9.91103 -0.15201 6.62503 1.28799Z" fill="white"/>
<path d="M18.444 3.84795C19.557 5.71462 20.617 7.58128 20.776 8.06128C21.094 8.86128 20.14 10.8879 17.384 15.3146L16.324 17.0746H21.359H26.341L28.885 12.9679L31.429 8.80795L30.21 6.67462C29.521 5.50128 28.408 3.63462 27.719 2.51462L26.5 0.541283H21.465H16.43L18.444 3.84795Z" fill="white"/>
<path d="M32.3301 0.80793C32.3301 0.914597 33.2841 2.56793 34.4501 4.38126C35.6161 6.24793 36.5701 8.16793 36.5701 8.64793C36.5701 9.18126 35.7221 10.8879 34.7151 12.5413C31.6411 17.2879 31.5351 17.0746 37.0471 17.0746H41.8701L44.3611 13.1813C45.6861 11.1013 46.7991 9.0746 46.7991 8.7546C46.7991 8.4346 45.7391 6.46126 44.4671 4.38126L42.1351 0.541264H37.2591C34.5561 0.541264 32.3301 0.64793 32.3301 0.80793Z" fill="white"/>
<path d="M50.138 4.48795L52.576 8.48795L51.304 10.7813C50.562 12.0613 49.449 13.9813 48.813 15.0479L47.594 17.0746H55.12H62.699L62.434 12.3813C62.169 7.47462 61.374 5.34128 59.254 3.42128C57.028 1.34128 54.802 0.541283 51.198 0.541283H47.7L50.138 4.48795Z" fill="white"/>
<path d="M0.583008 39.3066C0.583008 54.72 0.636008 56.0533 1.64301 57.92C2.96801 60.5866 5.40601 62.6133 8.05601 63.3066C9.43401 63.68 17.808 63.84 32.86 63.7333H54.06C59.095 63.3066 60.473 59.6266 61.109 58.3466C62.275 56.16 62.328 55.5733 62.487 39.4133L62.646 22.7733H31.641H0.583008V39.3066ZM30.952 32C32.595 32.6933 40.333 40.8 40.333 41.8133C40.333 42.9333 33.231 50.6133 31.27 51.5733C28.514 53.0133 27.401 52.9066 25.387 51.0933C23.903 49.76 23.638 49.1733 23.638 47.0933C23.638 45.2266 23.956 44.3733 25.069 43.2L26.5 41.7066L25.175 40.2133C23.214 37.92 23.373 34.5066 25.546 32.6933C27.401 31.1466 28.514 30.9866 30.952 32Z" fill="white"/>
</svg>
