<svg width="446" height="114" viewBox="0 0 446 114" fill="none" xmlns="http://www.w3.org/2000/svg">
<path d="M10.0001 1.70002C8.60009 1.90002 6.00009 2.30003 4.30009 2.60002L1.00009 3.10002V50.4C1.00009 102.8 0.900089 102.1 7.40009 107.8C13.1001 112.8 21.3001 114.2 30.6001 111.9C33.0001 111.3 35.0001 110.3 35.0001 109.6C35.0001 109 34.2001 105.6 33.2001 102C31.5001 96.1 31.1001 95.5 28.4001 95.2C26.8001 95 24.9001 94.4 24.3001 93.8C23.3001 93 23.0001 82.4 23.0001 46.9V1.00002L17.8001 1.10002C14.9001 1.20002 11.4001 1.40002 10.0001 1.70002Z" fill="#6667AB"/>
<path d="M260 1.5999C259.2 1.6999 256.3 2.1999 253.7 2.4999L248.9 3.0999L249.2 50.2999L249.5 97.4999L251.8 102.3C254.5 107.7 259.9 111.4 266.6 112.5C270.8 113.1 281.8 111.6 283.1 110.2C283.4 109.8 282.8 106.3 281.7 102.3C279.7 95.1999 279.7 95.0999 276.1 94.7999L272.5 94.4999L272.2 47.6999L272 0.999901L266.7 1.0999C263.9 1.1999 260.8 1.3999 260 1.5999Z" fill="#6667AB"/>
<path d="M384 3.6C383.2 3.7 380.4 4.2 377.8 4.5L373 5.1V58.6V112H384.5H396V57.5V3L390.8 3.1C387.9 3.2 384.8 3.4 384 3.6Z" fill="#6667AB"/>
<path d="M153.4 31.8999C147.1 32.9999 138.6 37.5999 134.5 42.1999C132.4 44.3999 129.4 49.1999 127.6 52.8999C124.6 59.1999 124.5 60.0999 124.5 71.9999C124.5 85.9999 125.4 89.5999 130.7 97.6999C138.7 109.8 156.1 115.7 171.6 111.6C177.4 110.1 187 105.2 187 103.8C187 103.1 180.4 93.3999 178.1 90.7999C177.7 90.3999 175.2 91.1999 172.6 92.4999C163 97.3999 153.7 94.9999 149.5 86.4999C147.9 83.1999 147.5 80.4999 147.5 71.9999C147.6 55.5999 151.4 49.1999 161.9 48.1999C166.3 47.7999 169.7 48.7999 177.2 52.7999C177.6 52.9999 180 50.2999 182.5 46.7999L187.1 40.4999L184.8 38.5999C178.1 32.9999 163.9 29.9999 153.4 31.8999Z" fill="#6667AB"/>
<path d="M312 31.8999C307.1 32.5999 295 35.7999 294.2 36.4999C294 36.6999 294.9 39.9999 296.1 43.9999C298.2 50.1999 298.7 50.9999 300.5 50.4999C322.1 44.1999 332 46.7999 332 58.9999V62.9999H325C313.4 62.9999 302.5 65.8999 296.2 70.5999C287.4 77.3999 285.5 92.5999 292.3 102.7C296.9 109.4 303.2 112.4 313 112.4C321.9 112.3 327.8 110.1 332.9 104.7L336.3 101.1L338.4 104.3C340.7 107.8 346 110.8 351.2 111.6L354.5 112.2L356.7 105.4L359 98.5999L356.7 96.1999C354.6 93.8999 354.5 92.8999 354 71.1999C353.5 50.5999 353.2 48.0999 351.3 44.4999C346.8 35.8999 339.9 32.2999 326.5 31.5999C321.5 31.3999 315 31.4999 312 31.8999ZM332 82.3999C332 90.8999 330.2 94.0999 324.4 95.9999C316.3 98.6999 310.5 94.8999 310.5 86.9999C310.5 78.8999 315.5 75.2999 326.8 75.0999L332 74.9999V82.3999Z" fill="#6667AB"/>
<path d="M44 64.2C44 81.4 44.4 96.1 45 98.1C49.5 114.3 70.4 118.1 84.1 105.3L88.7 101L89.4 106L90.1 111H99.5H109V72.5V34H98H87V60.8V87.7L83.5 91.3C77.5 97.5 70.6 97.8 67.8 92C66.2 88.9 66 85.2 66 61.2V34H55H44V64.2Z" fill="#6667AB"/>
<path d="M408.5 53.2L397.1 70.4L402.6 80.4C405.6 86 410.6 95.3 413.8 101.2L419.5 112H432.2H444.8L432.3 90.5L419.8 69.1L427.6 57.8C431.9 51.6 437.1 44.1 439.2 41.2L443.1 36H431.5H420L408.5 53.2Z" fill="#6667AB"/>
<path d="M208.5 55C206.1 57.7 206.3 61.6 209 64.6L211.3 67L209 69.4C204.5 74.3 207.2 81 213.7 81C216.6 81 218.1 80 223.5 74.3C228.2 69.3 229.7 67.2 229 66.1C228.6 65.2 225.5 61.9 222.2 58.7C215.5 52.4 211.8 51.4 208.5 55Z" fill="#6667AB"/>
</svg>
