<svg width="151" height="165" viewBox="0 0 151 165" fill="none" xmlns="http://www.w3.org/2000/svg">
<path d="M3.91179 126.238C3.45885 126.305 2.61767 126.441 2.06767 126.543L1.00003 126.713V142.764C1.00003 160.547 0.967676 160.309 3.07061 162.244C4.91472 163.941 7.56766 164.416 10.5765 163.635C11.3529 163.431 12 163.092 12 162.855C12 162.651 11.7412 161.497 11.4176 160.275C10.8677 158.273 10.7382 158.07 9.86471 157.968C9.34707 157.9 8.73236 157.696 8.53824 157.493C8.21472 157.221 8.11766 153.624 8.11766 141.577V126L6.43531 126.034C5.49708 126.068 4.36473 126.136 3.91179 126.238Z" fill="#6667AB"/>
<path d="M87.886 126.204C87.6059 126.238 86.5907 126.408 85.6804 126.511L84 126.715L84.105 142.781L84.2101 158.848L85.0153 160.482C85.9605 162.32 87.851 163.579 90.1966 163.954C91.667 164.158 95.5179 163.647 95.9731 163.171C96.0781 163.035 95.868 161.843 95.4829 160.482C94.7828 158.065 94.7828 158.031 93.5224 157.929L92.2621 157.827L92.1571 141.896L92.0871 126L90.2316 126.034C89.2513 126.068 88.1661 126.136 87.886 126.204Z" fill="#6667AB"/>
<path d="M129.826 126.198C129.548 126.231 128.574 126.396 127.67 126.495L126 126.694V144.363V162H130H134V144V126L132.191 126.033C131.183 126.066 130.104 126.132 129.826 126.198Z" fill="#6667AB"/>
<path d="M51.6949 136.196C49.5815 136.573 46.73 138.153 45.3546 139.732C44.6502 140.487 43.6438 142.135 43.0399 143.405C42.0335 145.567 42 145.876 42 149.961C42 154.767 42.3019 156.003 44.0799 158.784C46.7636 162.937 52.6006 164.963 57.8003 163.555C59.746 163.04 62.9665 161.358 62.9665 160.878C62.9665 160.637 60.7524 157.308 59.9808 156.415C59.8466 156.278 59.008 156.552 58.1358 156.999C54.9153 158.681 51.7955 157.857 50.3866 154.939C49.8498 153.806 49.7157 152.879 49.7157 149.961C49.7492 144.332 51.024 142.135 54.5463 141.791C56.0224 141.654 57.1629 141.997 59.6789 143.37C59.8131 143.439 60.6182 142.512 61.4569 141.311L63 139.148L62.2284 138.496C59.9808 136.573 55.2173 135.544 51.6949 136.196Z" fill="#6667AB"/>
<path d="M105.732 136.138C104.14 136.381 100.209 137.488 99.9494 137.731C99.8844 137.8 100.177 138.942 100.567 140.326C101.249 142.472 101.411 142.749 101.996 142.576C109.013 140.396 112.229 141.295 112.229 145.518V146.902H109.955C106.187 146.902 102.646 147.906 100.599 149.533C97.7404 151.886 97.1231 157.147 99.3321 160.643C100.826 162.962 102.873 164 106.057 164C108.948 163.965 110.865 163.204 112.521 161.335L113.626 160.089L114.308 161.197C115.055 162.408 116.777 163.446 118.466 163.723L119.538 163.931L120.253 161.577L121 159.224L120.253 158.393C119.571 157.597 119.538 157.251 119.376 149.74C119.213 142.611 119.116 141.745 118.499 140.499C117.037 137.523 114.795 136.277 110.442 136.035C108.818 135.965 106.706 136 105.732 136.138ZM112.229 153.617C112.229 156.559 111.644 157.666 109.76 158.324C107.129 159.258 105.245 157.943 105.245 155.209C105.245 152.405 106.869 151.159 110.54 151.09L112.229 151.056V153.617Z" fill="#6667AB"/>
<path d="M15 147.326C15 153.208 15.1354 158.234 15.3385 158.918C16.8615 164.457 23.9354 165.757 28.5723 161.38L30.1292 159.91L30.3662 161.619L30.6031 163.329H33.7846H37V150.164V137H33.2769H29.5538V146.164V155.362L28.3692 156.593C26.3385 158.713 24.0031 158.815 23.0554 156.832C22.5138 155.772 22.4462 154.507 22.4462 146.301V137H18.7231H15V147.326Z" fill="#6667AB"/>
<path d="M137.824 142.658L134 148.316L135.845 151.605C136.851 153.447 138.528 156.507 139.602 158.447L141.514 162H145.774H150L145.807 154.928L141.614 147.888L144.231 144.171C145.673 142.132 147.417 139.664 148.122 138.711L149.43 137H145.539H141.681L137.824 142.658Z" fill="#6667AB"/>
<path d="M70.5398 143.738C69.7895 144.7 69.852 146.089 70.6961 147.158L71.4152 148.013L70.6961 148.868C69.2893 150.613 70.1334 153 72.1656 153C73.0722 153 73.5412 152.644 75.2294 150.613C76.6989 148.832 77.1678 148.084 76.949 147.692C76.8239 147.372 75.8547 146.196 74.823 145.056C72.7283 142.812 71.5715 142.456 70.5398 143.738Z" fill="#6667AB"/>
<path d="M28.5 2.41499C20.4 6.01499 17 12.315 17 24.015V32.115L26.7 31.815L36.4 31.515L41.1 23.915L45.8 16.315L41.2 8.61499C36.1 0.414989 34.7 -0.285011 28.5 2.41499Z" fill="#6667AB"/>
<path d="M50.7998 7.21489C52.8998 10.7149 54.8998 14.2149 55.1998 15.1149C55.7998 16.6149 53.9998 20.4149 48.7998 28.7149L46.7998 32.0149H56.2998H65.6998L70.4998 24.3149L75.2998 16.5149L72.9998 12.5149C71.6998 10.3149 69.5998 6.81489 68.2998 4.71489L65.9998 1.01489H56.4998H46.9998L50.7998 7.21489Z" fill="#6667AB"/>
<path d="M77 1.51486C77 1.71486 78.8 4.81486 81 8.21486C83.2 11.7149 85 15.3149 85 16.2149C85 17.2149 83.4 20.4149 81.5 23.5149C75.7 32.4149 75.5 32.0149 85.9 32.0149H95L99.7 24.7149C102.2 20.8149 104.3 17.0149 104.3 16.4149C104.3 15.8149 102.3 12.1149 99.9 8.21486L95.5 1.01486H86.3C81.2 1.01486 77 1.21486 77 1.51486Z" fill="#6667AB"/>
<path d="M110.6 8.41489L115.2 15.9149L112.8 20.2149C111.4 22.6149 109.3 26.2149 108.1 28.2149L105.8 32.0149H120H134.3L133.8 23.2149C133.3 14.0149 131.8 10.0149 127.8 6.41489C123.6 2.51489 119.4 1.01489 112.6 1.01489H106L110.6 8.41489Z" fill="#6667AB"/>
<path d="M17.1001 73.7C17.1001 102.6 17.2001 105.1 19.1001 108.6C21.6001 113.6 26.2001 117.4 31.2001 118.7C33.8001 119.4 49.6001 119.7 78.0001 119.5H118C127.5 118.7 130.1 111.8 131.3 109.4C133.5 105.3 133.6 104.2 133.9 73.9L134.2 42.7H75.7001H17.1001V73.7ZM74.4001 60C77.5001 61.3 92.1001 76.5 92.1001 78.4C92.1001 80.5 78.7001 94.9 75.0001 96.7C69.8001 99.4 67.7001 99.2 63.9001 95.8C61.1001 93.3 60.6001 92.2 60.6001 88.3C60.6001 84.8 61.2001 83.2 63.3001 81L66.0001 78.2L63.5001 75.4C59.8001 71.1 60.1001 64.7 64.2001 61.3C67.7001 58.4 69.8001 58.1 74.4001 60Z" fill="#6667AB"/>
</svg>
