<svg width="134" height="142" viewBox="0 0 134 142" fill="none" xmlns="http://www.w3.org/2000/svg">
<path d="M23.6811 1.25598C16.4907 4.45172 13.4725 10.0443 13.4725 20.4304V27.6208L21.9057 27.5189H29.895L34.8662 20.3417L39.0384 13.5951L34.955 6.75976C30.4277 -0.51943 29.1849 -1.14082 23.6811 1.25598Z" fill="url(#paint0_linear_2975_563)"/>
<path d="M43.4768 5.51687C45.341 8.62384 47.1164 11.7308 47.3828 12.5298C47.9154 13.8613 46.3175 17.2346 41.7014 24.6026L39.926 27.532H48.3592H56.7037L60.9647 20.6966L65.2256 13.7725L63.1839 10.2217C62.0299 8.26876 60.1657 5.16179 59.0117 3.29761L56.97 0.0130947H48.5368H40.1036L43.4768 5.51687Z" fill="url(#paint1_linear_2975_563)"/>
<path d="M66.7349 0.456973C66.7349 0.634514 68.3327 3.3864 70.2857 6.4046C72.2386 9.51158 73.8365 12.7073 73.8365 13.5063C73.8365 14.394 72.4162 17.2346 70.7295 19.9865C65.5808 27.8871 65.4033 27.532 74.6354 27.532H82.7136L86.8858 21.0518C89.1051 17.5897 90.9692 14.2164 90.9692 13.6838C90.9692 13.1512 89.1938 9.86666 87.0633 6.4046L83.1574 0.0131196H74.9905C70.4632 0.0131196 66.7349 0.190661 66.7349 0.456973Z" fill="url(#paint2_linear_2975_563)"/>
<path d="M96.5615 6.58212L100.645 13.2399L98.5145 17.0571C97.2717 19.1875 95.4075 22.3833 94.3423 24.1587L92.3005 27.532H104.906H117.334L117.156 19.7202C116.712 11.5533 115.381 8.00245 111.83 4.80671C108.102 1.34465 104.373 0.0130933 98.3369 0.0130933H92.4781L96.5615 6.58212Z" fill="url(#paint3_linear_2975_563)"/>
<path d="M13.4725 63.0337C13.4725 88.6884 13.5612 90.9077 15.2479 94.0146C17.4672 98.4532 21.5506 101.826 25.9891 102.98C28.2972 103.602 42.3229 103.868 67.5338 103.691H103.042C111.475 102.98 113.783 96.8553 114.849 94.7248C116.801 91.0852 116.89 90.1087 117.157 63.2112L117.334 35.5148H65.492H13.4725V63.0337ZM64.338 50.8721C67.0899 52.0261 80.0504 65.5193 80.0504 67.2059C80.0504 69.0701 68.1552 81.8531 64.8707 83.4509C60.2546 85.8477 58.3904 85.6702 55.0171 82.652C52.5315 80.4327 52.0877 79.4563 52.0877 75.9942C52.0877 72.8872 52.6203 71.4669 54.4845 69.514L56.8813 67.0284L54.662 64.5428C51.3775 60.7257 51.6438 55.0443 55.2834 52.0261C58.3904 49.4518 60.2546 49.1855 64.338 50.8721Z" fill="url(#paint4_linear_2975_563)"/>
<path d="M2.71037 108.529C2.28876 108.59 1.50577 108.71 0.993818 108.8L2.68344e-05 108.95V123.178C2.68344e-05 138.939 -0.030088 138.729 1.92738 140.443C3.64393 141.947 6.11335 142.368 8.91403 141.677C9.63679 141.496 10.2391 141.195 10.2391 140.985C10.2391 140.804 9.99817 139.782 9.69702 138.699C9.18507 136.924 9.06461 136.744 8.2515 136.653C7.76967 136.593 7.19748 136.413 7.01679 136.232C6.71565 135.992 6.6253 132.803 6.6253 122.125V108.319L5.05933 108.349C4.186 108.379 3.13197 108.439 2.71037 108.529Z" fill="url(#paint5_linear_2975_563)"/>
<path d="M77.8622 108.499C77.6201 108.529 76.7424 108.679 75.9555 108.77L74.5028 108.95L74.5936 123.133L74.6844 137.317L75.3805 138.759C76.1976 140.382 77.8319 141.494 79.8597 141.824C81.1308 142.005 84.4599 141.554 84.8533 141.133C84.9441 141.013 84.7625 139.961 84.4296 138.759C83.8243 136.626 83.8243 136.596 82.7348 136.506L81.6453 136.415L81.5545 122.352L81.4939 108.319L79.8899 108.349C79.0425 108.379 78.1043 108.439 77.8622 108.499Z" fill="url(#paint6_linear_2975_563)"/>
<path d="M115.242 109.039C115.003 109.069 114.167 109.22 113.39 109.31L111.956 109.491V125.626V141.731H115.392H118.827V125.294V108.858L117.274 108.888C116.407 108.918 115.481 108.978 115.242 109.039Z" fill="url(#paint7_linear_2975_563)"/>
<path d="M45.8295 117.652C43.9449 117.982 41.4021 119.365 40.1756 120.748C39.5474 121.409 38.6499 122.852 38.1114 123.964C37.214 125.858 37.1841 126.129 37.1841 129.706C37.1841 133.915 37.4533 134.997 39.0388 137.432C41.432 141.069 46.6372 142.843 51.274 141.611C53.0091 141.16 55.8809 139.687 55.8809 139.266C55.8809 139.055 53.9065 136.139 53.2185 135.358C53.0988 135.238 52.351 135.478 51.5732 135.869C48.7013 137.342 45.9192 136.62 44.6628 134.065C44.1842 133.073 44.0645 132.261 44.0645 129.706C44.0944 124.776 45.2312 122.852 48.3723 122.552C49.6885 122.431 50.7056 122.732 52.9493 123.934C53.0689 123.995 53.7869 123.183 54.5347 122.131L55.9108 120.237L55.2228 119.666C53.2185 117.982 48.9706 117.08 45.8295 117.652Z" fill="url(#paint8_linear_2975_563)"/>
<path d="M93.5144 117.601C92.0412 117.812 88.4033 118.776 88.1628 118.987C88.1027 119.047 88.3732 120.042 88.734 121.248C89.3654 123.117 89.5157 123.358 90.0569 123.207C96.551 121.308 99.5275 122.092 99.5275 125.769V126.975H97.4229C93.9353 126.975 90.6582 127.849 88.7641 129.266C86.1183 131.315 85.5471 135.897 87.5915 138.941C88.9746 140.961 90.8687 141.865 93.8151 141.865C96.4909 141.835 98.2648 141.172 99.7981 139.544L100.82 138.459L101.452 139.424C102.143 140.479 103.737 141.383 105.3 141.624L106.292 141.805L106.954 139.755L107.645 137.706L106.954 136.982C106.322 136.289 106.292 135.987 106.142 129.447C105.992 123.237 105.901 122.484 105.33 121.399C103.977 118.806 101.903 117.721 97.8739 117.51C96.3706 117.45 94.4164 117.48 93.5144 117.601ZM99.5275 132.823C99.5275 135.385 98.9863 136.349 97.2425 136.922C94.8072 137.736 93.0634 136.59 93.0634 134.209C93.0634 131.768 94.5667 130.682 97.9641 130.622L99.5275 130.592V132.823Z" fill="url(#paint9_linear_2975_563)"/>
<path d="M12.9336 127.357C12.9336 132.522 13.0538 136.936 13.2341 137.537C14.5866 142.402 20.8678 143.543 24.9852 139.699L26.3677 138.408L26.5781 139.909L26.7885 141.411H29.6136H32.4687V129.85V118.288H29.1628H25.8568V126.336V134.414L24.8049 135.495C23.0017 137.357 20.928 137.447 20.0864 135.705C19.6056 134.774 19.5455 133.663 19.5455 126.456V118.288H16.2395H12.9336V127.357Z" fill="url(#paint10_linear_2975_563)"/>
<path d="M122.542 124.011L119.097 129.194L120.759 132.208C121.666 133.895 123.177 136.698 124.144 138.476L125.866 141.731H129.704H133.512L129.735 135.251L125.957 128.802L128.314 125.397C129.614 123.529 131.185 121.268 131.82 120.394L132.999 118.827H129.493H126.017L122.542 124.011Z" fill="url(#paint11_linear_2975_563)"/>
<path d="M62.3581 124.574C61.636 125.39 61.6962 126.569 62.5085 127.476L63.2005 128.202L62.5085 128.927C61.1547 130.409 61.967 132.435 63.9226 132.435C64.7951 132.435 65.2464 132.132 66.871 130.409C68.2851 128.897 68.7364 128.262 68.5258 127.93C68.4054 127.658 67.4727 126.66 66.4799 125.692C64.4641 123.788 63.351 123.485 62.3581 124.574Z" fill="url(#paint12_linear_2975_563)"/>
<defs>
<linearGradient id="paint0_linear_2975_563" x1="136.342" y1="142" x2="-5.65845" y2="-2.54332e-05" gradientUnits="userSpaceOnUse">
<stop stop-color="#6B82FB"/>
<stop offset="1" stop-color="#FD5D7E"/>
</linearGradient>
<linearGradient id="paint1_linear_2975_563" x1="136.342" y1="142" x2="-5.65841" y2="1.90872e-05" gradientUnits="userSpaceOnUse">
<stop stop-color="#6B82FB"/>
<stop offset="1" stop-color="#FD5D7E"/>
</linearGradient>
<linearGradient id="paint2_linear_2975_563" x1="136.342" y1="142" x2="-5.65842" y2="3.29655e-05" gradientUnits="userSpaceOnUse">
<stop stop-color="#6B82FB"/>
<stop offset="1" stop-color="#FD5D7E"/>
</linearGradient>
<linearGradient id="paint3_linear_2975_563" x1="136.341" y1="142" x2="-5.65847" y2="-2.6329e-05" gradientUnits="userSpaceOnUse">
<stop stop-color="#6B82FB"/>
<stop offset="1" stop-color="#FD5D7E"/>
</linearGradient>
<linearGradient id="paint4_linear_2975_563" x1="136.342" y1="142" x2="-5.65845" y2="-3.67415e-05" gradientUnits="userSpaceOnUse">
<stop stop-color="#6B82FB"/>
<stop offset="1" stop-color="#FD5D7E"/>
</linearGradient>
<linearGradient id="paint5_linear_2975_563" x1="136.274" y1="142" x2="-5.65844" y2="3.08638e-05" gradientUnits="userSpaceOnUse">
<stop stop-color="#6B82FB"/>
<stop offset="1" stop-color="#FD5D7E"/>
</linearGradient>
<linearGradient id="paint6_linear_2975_563" x1="136.342" y1="142" x2="-5.65846" y2="-1.14101e-05" gradientUnits="userSpaceOnUse">
<stop stop-color="#6B82FB"/>
<stop offset="1" stop-color="#FD5D7E"/>
</linearGradient>
<linearGradient id="paint7_linear_2975_563" x1="136.341" y1="142" x2="-5.65847" y2="6.07865e-05" gradientUnits="userSpaceOnUse">
<stop stop-color="#6B82FB"/>
<stop offset="1" stop-color="#FD5D7E"/>
</linearGradient>
<linearGradient id="paint8_linear_2975_563" x1="136.342" y1="142" x2="-5.65841" y2="2.42404e-05" gradientUnits="userSpaceOnUse">
<stop stop-color="#6B82FB"/>
<stop offset="1" stop-color="#FD5D7E"/>
</linearGradient>
<linearGradient id="paint9_linear_2975_563" x1="136.342" y1="142" x2="-5.65842" y2="3.105e-06" gradientUnits="userSpaceOnUse">
<stop stop-color="#6B82FB"/>
<stop offset="1" stop-color="#FD5D7E"/>
</linearGradient>
<linearGradient id="paint10_linear_2975_563" x1="136.342" y1="142" x2="-5.65841" y2="1.34123e-05" gradientUnits="userSpaceOnUse">
<stop stop-color="#6B82FB"/>
<stop offset="1" stop-color="#FD5D7E"/>
</linearGradient>
<linearGradient id="paint11_linear_2975_563" x1="136.342" y1="142" x2="-5.6584" y2="8.17018e-05" gradientUnits="userSpaceOnUse">
<stop stop-color="#6B82FB"/>
<stop offset="1" stop-color="#FD5D7E"/>
</linearGradient>
<linearGradient id="paint12_linear_2975_563" x1="136.341" y1="142" x2="-5.65853" y2="8.18437e-05" gradientUnits="userSpaceOnUse">
<stop stop-color="#6B82FB"/>
<stop offset="1" stop-color="#FD5D7E"/>
</linearGradient>
</defs>
</svg>
