<svg width="120" height="120" viewBox="0 0 120 120" fill="none" xmlns="http://www.w3.org/2000/svg">
<path d="M12.605 2.41499C4.43696 6.01499 1.00839 12.315 1.00839 24.015V32.115L10.7899 31.815L20.5714 31.515L25.3109 23.915L30.0504 16.315L25.4118 8.61499C20.2689 0.41499 18.8571 -0.28501 12.605 2.41499Z" fill="#8946A6"/>
<path d="M35.0922 7.21489C37.2099 10.7149 39.2267 14.2149 39.5292 15.1149C40.1343 16.6149 38.3191 20.4149 33.0754 28.7149L31.0586 32.0149H40.6385H50.1174L54.9578 24.3149L59.7981 16.5149L57.4788 12.5149C56.1679 10.3149 54.0502 6.81489 52.7393 4.71489L50.42 1.01489H40.8401H31.2603L35.0922 7.21489Z" fill="#8946A6"/>
<path d="M61.5126 1.51486C61.5126 1.71486 63.3277 4.81486 65.5462 8.21486C67.7647 11.7149 69.5798 15.3149 69.5798 16.2149C69.5798 17.2149 67.9664 20.4149 66.0504 23.5149C60.2017 32.4149 60 32.0149 70.4874 32.0149H79.6639L84.4034 24.7149C86.9244 20.8149 89.042 17.0149 89.042 16.4149C89.042 15.8149 87.0252 12.1149 84.605 8.21486L80.1681 1.01486H70.8908C65.7479 1.01486 61.5126 1.21486 61.5126 1.51486Z" fill="#8946A6"/>
<path d="M95.3948 8.41489L100.033 15.9149L97.6133 20.2149C96.2015 22.6149 94.0839 26.2149 92.8738 28.2149L90.5544 32.0149H104.874H119.294L118.79 23.2149C118.286 14.0149 116.773 10.0149 112.739 6.41489C108.504 2.51489 104.269 1.01489 97.4116 1.01489H90.7561L95.3948 8.41489Z" fill="#8946A6"/>
<path d="M1.10934 73.7C1.10934 102.6 1.21018 105.1 3.12615 108.6C5.64716 113.6 10.2858 117.4 15.3278 118.7C17.9497 119.4 33.8825 119.7 62.5211 119.5H102.857C112.437 118.7 115.059 111.8 116.269 109.4C118.487 105.3 118.588 104.2 118.891 73.9L119.193 42.7H60.2018H1.10934V73.7ZM58.8909 60C62.0169 61.3 76.7396 76.5 76.7396 78.4C76.7396 80.5 63.227 94.9 59.4959 96.7C54.2522 99.4 52.1346 99.2 48.3026 95.8C45.4791 93.3 44.9749 92.2 44.9749 88.3C44.9749 84.8 45.5799 83.2 47.6976 81L50.4203 78.2L47.8993 75.4C44.1682 71.1 44.4707 64.7 48.6051 61.3C52.1346 58.4 54.2522 58.1 58.8909 60Z" fill="#8946A6"/>
</svg>
