<svg width="24" height="24" viewBox="0 0 24 24" fill="none" xmlns="http://www.w3.org/2000/svg">
<path d="M20.1 8.47619H3.9C3.66131 8.47619 3.43239 8.34575 3.2636 8.11356C3.09482 7.88137 3 7.56646 3 7.2381C3 6.90973 3.09482 6.59482 3.2636 6.36263C3.43239 6.13044 3.66131 6 3.9 6H20.1C20.3387 6 20.5676 6.13044 20.7364 6.36263C20.9052 6.59482 21 6.90973 21 7.2381C21 7.56646 20.9052 7.88137 20.7364 8.11356C20.5676 8.34575 20.3387 8.47619 20.1 8.47619Z" fill="black"/>
<path d="M20.1 13.4286H3.9C3.66131 13.4286 3.43239 13.2981 3.2636 13.066C3.09482 12.8338 3 12.5189 3 12.1905C3 11.8621 3.09482 11.5472 3.2636 11.315C3.43239 11.0828 3.66131 10.9524 3.9 10.9524H20.1C20.3387 10.9524 20.5676 11.0828 20.7364 11.315C20.9052 11.5472 21 11.8621 21 12.1905C21 12.5189 20.9052 12.8338 20.7364 13.066C20.5676 13.2981 20.3387 13.4286 20.1 13.4286Z" fill="black"/>
<path d="M20.1 18.4762H3.9C3.66131 18.4762 3.43239 18.3457 3.2636 18.1136C3.09482 17.8814 3 17.5665 3 17.2381C3 16.9097 3.09482 16.5948 3.2636 16.3626C3.43239 16.1304 3.66131 16 3.9 16H20.1C20.3387 16 20.5676 16.1304 20.7364 16.3626C20.9052 16.5948 21 16.9097 21 17.2381C21 17.5665 20.9052 17.8814 20.7364 18.1136C20.5676 18.3457 20.3387 18.4762 20.1 18.4762Z" fill="black"/>
</svg>
