<svg width="22" height="22" viewBox="0 0 22 22" fill="none" xmlns="http://www.w3.org/2000/svg">
<path d="M3 6.08333C3 5.79602 3.11194 5.52047 3.3112 5.3173C3.51046 5.11414 3.78071 5 4.0625 5H18.9375C19.2193 5 19.4895 5.11414 19.6888 5.3173C19.8881 5.52047 20 5.79602 20 6.08333C20 6.37065 19.8881 6.6462 19.6888 6.84937C19.4895 7.05253 19.2193 7.16667 18.9375 7.16667H4.0625C3.78071 7.16667 3.51046 7.05253 3.3112 6.84937C3.11194 6.6462 3 6.37065 3 6.08333ZM3 10.6666C3 10.3793 3.11194 10.1038 3.3112 9.90062C3.51046 9.69745 3.78071 9.58331 4.0625 9.58331H14.9375C15.2193 9.58331 15.4895 9.69745 15.6888 9.90062C15.8881 10.1038 16 10.3793 16 10.6666C16 10.954 15.8881 11.2295 15.6888 11.4327C15.4895 11.6358 15.2193 11.75 14.9375 11.75H4.0625C3.78071 11.75 3.51046 11.6358 3.3112 11.4327C3.11194 11.2295 3 10.954 3 10.6666ZM3 15.1666C3 14.8793 3.11194 14.6038 3.3112 14.4006C3.51046 14.1974 3.78071 14.0833 4.0625 14.0833H18.9375C19.2193 14.0833 19.4895 14.1974 19.6888 14.4006C19.8881 14.6038 20 14.8793 20 15.1666C20 15.4539 19.8881 15.7295 19.6888 15.9327C19.4895 16.1358 19.2193 16.25 18.9375 16.25H4.0625C3.78071 16.25 3.51046 16.1358 3.3112 15.9327C3.11194 15.7295 3 15.4539 3 15.1666Z" fill="white"/>
</svg>
