<svg width="24" height="24" viewBox="0 0 24 24" fill="none" xmlns="http://www.w3.org/2000/svg">
<path d="M8.35988 20C8.08329 20.0002 7.81323 19.922 7.58576 19.7757C7.35829 19.6294 7.18426 19.4221 7.08692 19.1814C6.98958 18.9407 6.97357 18.6781 7.04103 18.4287C7.10849 18.1794 7.2562 17.9551 7.46443 17.7858L14.5782 11.9999L7.46508 6.21396C7.19387 5.99333 7.02804 5.68157 7.00408 5.34728C6.98011 5.01298 7.09998 4.68352 7.33729 4.43138C7.57461 4.17924 7.90994 4.02508 8.26952 4.0028C8.6291 3.98052 8.98348 4.09195 9.25468 4.31258L17.5363 11.0495C17.682 11.1681 17.7987 11.3142 17.8787 11.4781C17.9586 11.642 18 11.8199 18 11.9999C18 12.1799 17.9586 12.3578 17.8787 12.5217C17.7987 12.6856 17.682 12.8317 17.5363 12.9503L9.25468 19.6872C9.00736 19.8893 8.68917 20.0006 8.35988 20Z" fill="black"/>
</svg>
