<svg width="24" height="24" viewBox="0 0 24 24" fill="none" xmlns="http://www.w3.org/2000/svg">
<path d="M13.235 10.7651V3.85215C13.2352 3.52435 13.1053 3.20987 12.8737 2.97787C12.6421 2.74588 12.3279 2.61538 12.0001 2.61509C11.6723 2.6148 11.3578 2.74475 11.1258 2.97633C10.8938 3.20791 10.7633 3.52217 10.763 3.84997L10.763 10.7629L3.85005 10.7629C3.52196 10.7629 3.20731 10.8933 2.97532 11.1253C2.74332 11.3573 2.61299 11.6719 2.61299 12C2.61299 12.3281 2.74332 12.6427 2.97532 12.8747C3.20731 13.1067 3.52196 13.2371 3.85005 13.2371L10.763 13.2371L10.763 20.15C10.763 20.4781 10.8934 20.7928 11.1253 21.0248C11.3573 21.2568 11.672 21.3871 12.0001 21.3871C12.3282 21.3871 12.6428 21.2568 12.8748 21.0248C13.1068 20.7928 13.2371 20.4781 13.2371 20.15V13.2371H20.1501C20.4782 13.2371 20.7928 13.1067 21.0248 12.8747C21.2568 12.6427 21.3872 12.3281 21.3872 12C21.3872 11.6719 21.2568 11.3573 21.0248 11.1253C20.7928 10.8933 20.4782 10.7629 20.1501 10.7629L13.235 10.7651Z" fill="black"/>
</svg>
