<svg width="24" height="24" viewBox="0 0 24 24" fill="none" xmlns="http://www.w3.org/2000/svg">
<path d="M20.7241 19.1932L16.6436 15.1127C17.626 13.8049 18.1563 12.213 18.1546 10.5773C18.1546 6.39919 14.7554 3 10.5773 3C6.39919 3 3 6.39919 3 10.5773C3 14.7554 6.39919 18.1546 10.5773 18.1546C12.213 18.1563 13.8049 17.626 15.1127 16.6436L19.1932 20.7241C19.3998 20.9088 19.6692 21.0073 19.9461 20.9996C20.2231 20.9918 20.4865 20.8783 20.6824 20.6824C20.8783 20.4865 20.9918 20.2231 20.9996 19.9461C21.0073 19.6692 20.9088 19.3998 20.7241 19.1932ZM5.16494 10.5773C5.16494 9.50682 5.48237 8.4604 6.07708 7.57034C6.6718 6.68029 7.51709 5.98657 8.50607 5.57693C9.49504 5.16728 10.5833 5.0601 11.6332 5.26893C12.6831 5.47777 13.6475 5.99325 14.4044 6.75018C15.1613 7.50711 15.6768 8.47149 15.8856 9.52138C16.0945 10.5713 15.9873 11.6595 15.5776 12.6485C15.168 13.6375 14.4743 14.4828 13.5842 15.0775C12.6942 15.6722 11.6477 15.9896 10.5773 15.9896C9.14237 15.9879 7.76672 15.4171 6.75208 14.4025C5.73744 13.3878 5.16666 12.0122 5.16494 10.5773Z" fill="black"/>
</svg>
