<svg width="30" height="30" viewBox="0 0 30 30" fill="none" xmlns="http://www.w3.org/2000/svg">
<g clip-path="url(#clip0_3041_582)">
<path d="M17.4208 25.1892C16.1487 25.1892 14.8704 24.9942 13.6223 24.601C10.4146 23.5903 7.79238 21.3908 6.23883 18.4078C4.68522 15.4249 4.38639 12.0155 5.39701 8.80767C6.40775 5.5999 8.60718 2.97772 11.5902 1.42417C17.748 -1.78278 25.3668 0.617684 28.5738 6.77552C28.8148 7.23835 28.635 7.80906 28.1722 8.04999C27.7095 8.29105 27.1388 8.11134 26.8977 7.64839C24.1721 2.41493 17.6968 0.374579 12.4632 3.1003C9.92782 4.4207 8.05857 6.64931 7.19947 9.37567C6.34037 12.102 6.59443 14.9997 7.91484 17.535C9.23525 20.0703 11.4639 21.9396 14.1902 22.7987C16.9165 23.6576 19.8143 23.4037 22.3495 22.0833C25.0159 20.6947 26.9857 18.2301 27.7539 15.3214C28.0131 14.3403 28.1319 13.3302 28.107 12.3192C28.0941 11.7976 28.5066 11.3642 29.0282 11.3513C29.5517 11.3399 29.9833 11.7509 29.9962 12.2725C30.0256 13.462 29.8859 14.65 29.5811 15.804C28.6773 19.2259 26.3597 22.1255 23.2225 23.7594C21.4001 24.7083 19.4182 25.189 17.4208 25.1892Z" fill="#A2A2A2"/>
<path d="M17.4067 19.1012C21.0019 19.1012 23.9164 16.1867 23.9164 12.5915C23.9164 8.99634 21.0019 6.08185 17.4067 6.08185C13.8115 6.08185 10.897 8.99634 10.897 12.5915C10.897 16.1867 13.8115 19.1012 17.4067 19.1012Z" fill="#A2A2A2"/>
<path d="M17.4062 20.0462C13.2958 20.0462 9.95166 16.7021 9.95166 12.5917C9.95166 8.4812 13.2958 5.13708 17.4062 5.13708C21.5166 5.13708 24.8608 8.4812 24.8608 12.5917C24.8608 16.7022 21.5167 20.0462 17.4062 20.0462ZM17.4062 7.02696C14.3378 7.02696 11.8414 9.52335 11.8414 12.5918C11.8414 15.6602 14.3377 18.1566 17.4062 18.1566C20.4747 18.1566 22.971 15.6603 22.971 12.5918C22.971 9.52329 20.4747 7.02696 17.4062 7.02696Z" fill="#A2A2A2"/>
<path d="M3.31214 29.9981C2.43669 29.9981 1.59341 29.6512 0.970147 29.028C0.295031 28.3528 -0.0559444 27.4191 0.00727818 26.4665C0.0705007 25.5138 0.541828 24.6347 1.30026 24.0547L5.17166 21.0942C5.54789 20.8065 6.07893 20.8418 6.41379 21.1766L8.82146 23.5843C9.15632 23.9191 9.1916 24.4503 8.90384 24.8264L5.9434 28.6978C5.36332 29.4562 4.4843 29.9276 3.53157 29.9908C3.45839 29.9956 3.38508 29.9981 3.31214 29.9981ZM5.66244 23.0978L2.44823 25.5557C2.11759 25.8085 1.92054 26.1763 1.89294 26.5915C1.86534 27.0067 2.01218 27.3974 2.30643 27.6916C2.60069 27.9859 2.9911 28.1327 3.40659 28.1051C3.82178 28.0775 4.18963 27.8804 4.44229 27.5499L6.90029 24.3356L5.66244 23.0978Z" fill="#A2A2A2"/>
</g>
<defs>
<clipPath id="clip0_3041_582">
<rect width="30" height="30" fill="white"/>
</clipPath>
</defs>
</svg>
