<svg width="24" height="24" viewBox="0 0 24 24" fill="none" xmlns="http://www.w3.org/2000/svg">
<path d="M20.7189 3.28237C20.5874 3.15093 20.4208 3.0603 20.239 3.02137C20.0572 2.98245 19.8681 2.9969 19.6943 3.06298L3.62135 9.14672H3.61814C3.43282 9.218 3.27402 9.34475 3.16342 9.50967C3.05283 9.67458 2.99584 9.86961 3.00024 10.0681C3.00463 10.2666 3.0702 10.459 3.18798 10.6188C3.30577 10.7787 3.47002 10.8983 3.65832 10.9613L3.67479 10.9665L9.19142 13.3223C9.29902 13.3549 9.41331 13.3588 9.52287 13.3335C9.63244 13.3082 9.73344 13.2546 9.81581 13.178L18.6697 4.92776C18.6961 4.90138 18.7274 4.88045 18.7619 4.86617C18.7964 4.8519 18.8333 4.84455 18.8706 4.84455C18.908 4.84455 18.9449 4.8519 18.9794 4.86617C19.0138 4.88045 19.0452 4.90138 19.0715 4.92776C19.0979 4.95415 19.1188 4.98547 19.1331 5.01994C19.1474 5.05441 19.1548 5.09136 19.1548 5.12867C19.1548 5.16598 19.1474 5.20292 19.1331 5.23739C19.1188 5.27186 19.0979 5.30319 19.0715 5.32957L10.8211 14.1797C10.7445 14.2621 10.6909 14.3631 10.6656 14.4727C10.6403 14.5823 10.6442 14.6965 10.6769 14.8041L13.0334 20.3241C13.0358 20.3322 13.0382 20.3394 13.041 20.347C13.1696 20.7195 13.495 20.9823 13.8884 21C13.9057 21 13.9117 21 13.9286 21C14.1272 21.0011 14.3215 20.9425 14.4863 20.8317C14.6511 20.7209 14.7788 20.5631 14.8527 20.3788L20.9355 4.30979C21.0025 4.13592 21.0177 3.94635 20.9793 3.76402C20.9408 3.58168 20.8504 3.41439 20.7189 3.28237Z" fill="black"/>
</svg>
