<svg width="24" height="24" viewBox="0 0 24 24" fill="none" xmlns="http://www.w3.org/2000/svg">
<path d="M22.2 9.52482C22.125 9.14982 21.75 8.92482 21.375 8.92482C20.475 9.07482 19.575 8.62482 19.125 7.79982C18.675 7.04982 18.75 5.99982 19.275 5.32482C19.5 5.02482 19.5 4.57482 19.2 4.34982C18 3.22482 16.575 2.39982 15 1.94982C14.625 1.87482 14.25 2.02482 14.1 2.39982C13.725 3.22482 12.9 3.74982 12 3.74982C11.1 3.74982 10.275 3.22482 9.9 2.39982C9.75 2.02482 9.375 1.79982 9 1.94982C7.425 2.39982 6 3.22482 4.8 4.42482C4.5 4.64982 4.5 5.09982 4.725 5.39982C5.25 6.14982 5.325 7.12482 4.875 7.87482C4.425 8.62482 3.525 9.07482 2.625 8.99982C2.25 8.92482 1.875 9.22482 1.8 9.59982C1.575 10.3498 1.5 11.1748 1.5 11.9998C1.5 12.8248 1.575 13.6498 1.8 14.4748C1.875 14.8498 2.25 15.0748 2.625 14.9998C3.525 14.8498 4.425 15.2998 4.875 16.1248C5.325 16.8748 5.25 17.9248 4.725 18.5998C4.5 18.8998 4.5 19.3498 4.8 19.5748C6 20.6998 7.5 21.5998 9.075 22.0498C9.45 22.1248 9.825 21.9748 9.975 21.5998C10.35 20.7748 11.175 20.2498 12.075 20.2498C12.975 20.2498 13.8 20.7748 14.175 21.5998C14.325 21.8998 14.55 22.0498 14.85 22.0498C14.925 22.0498 15 22.0498 15.075 22.0498C16.65 21.5998 18.15 20.6998 19.35 19.5748C19.65 19.2748 19.65 18.8998 19.425 18.5998C18.9 17.8498 18.825 16.8748 19.275 16.1248C19.725 15.3748 20.625 14.9248 21.525 14.9998C21.9 15.0748 22.275 14.7748 22.35 14.3998C22.575 13.5748 22.65 12.7498 22.65 11.9248C22.65 11.0998 22.425 10.3498 22.2 9.52482ZM12 14.9998C10.35 14.9998 9 13.6498 9 11.9998C9 10.3498 10.35 8.99982 12 8.99982C13.65 8.99982 15 10.3498 15 11.9998C15 13.6498 13.65 14.9998 12 14.9998Z" fill="#A2A2A2"/>
</svg>
