<svg width="24" height="24" viewBox="0 0 24 24" fill="none" xmlns="http://www.w3.org/2000/svg">
<path d="M12.8767 16.168C13.0291 15.7533 13.6374 15.7533 13.7898 16.168L14.2065 17.3021C14.2553 17.4348 14.3636 17.5393 14.5012 17.5863L15.6773 17.9882C16.1074 18.1351 16.1074 18.7216 15.6773 18.8686L14.5012 19.2704C14.3636 19.3175 14.2553 19.4219 14.2065 19.5547L13.7898 20.6887C13.6374 21.1035 13.0291 21.1035 12.8767 20.6887L12.46 19.5547C12.4112 19.4219 12.3029 19.3175 12.1652 19.2704L10.9891 18.8686C10.559 18.7216 10.559 18.1351 10.9891 17.9882L12.1652 17.5863C12.3029 17.5393 12.4112 17.4348 12.46 17.3021L12.8767 16.168Z" stroke="white" stroke-width="1.5" stroke-linejoin="round"/>
<path d="M14.6395 3.47278C14.8712 2.84241 15.7957 2.84241 16.0273 3.47278L16.8212 5.63332C16.8954 5.8351 17.06 5.99384 17.2692 6.06534L19.5098 6.83089C20.1635 7.05426 20.1635 7.94574 19.5098 8.16911L17.2692 8.93466C17.06 9.00616 16.8954 9.1649 16.8212 9.36668L16.0273 11.5272C15.7957 12.1576 14.8712 12.1576 14.6395 11.5272L13.8456 9.36668C13.7715 9.1649 13.6069 9.00616 13.3976 8.93466L11.1571 8.16911C10.5033 7.94574 10.5033 7.05426 11.1571 6.83089L13.3976 6.06534C13.6069 5.99384 13.7715 5.8351 13.8456 5.63332L14.6395 3.47278Z" stroke="white" stroke-width="1.5" stroke-linejoin="round"/>
<path d="M6.48641 9.36289C6.65786 8.87904 7.34214 8.87904 7.51358 9.36289L7.9824 10.686C8.03728 10.8409 8.15913 10.9627 8.31401 11.0176L9.63711 11.4864C10.121 11.6579 10.121 12.3421 9.63711 12.5136L8.31401 12.9824C8.15913 13.0373 8.03728 13.1591 7.9824 13.314L7.51358 14.6371C7.34214 15.121 6.65786 15.121 6.48641 14.6371L6.0176 13.314C5.96272 13.1591 5.84087 13.0373 5.68599 12.9824L4.36289 12.5136C3.87904 12.3421 3.87904 11.6579 4.36289 11.4864L5.68599 11.0176C5.84087 10.9627 5.96272 10.8409 6.0176 10.686L6.48641 9.36289Z" stroke="white" stroke-width="1.5" stroke-linejoin="round"/>
</svg>
