<svg width="24" height="24" viewBox="0 0 24 24" fill="none" xmlns="http://www.w3.org/2000/svg">
<path d="M12 1.5L2.25 4.71V9C2.25 19.9575 11.7225 22.455 11.82 22.5H12L12.18 22.455C12.2775 22.455 21.75 19.935 21.75 8.955V4.71L12 1.5ZM20.25 9C20.25 18.075 13.2675 20.5875 12 21C10.7325 20.5875 3.75 18.075 3.75 9V5.79L12 3.0375L20.25 5.79V9Z" fill="white"/>
<path d="M8.69244 11.25L7.62744 12.3075L9.34494 14.025C9.48448 14.1654 9.65043 14.2767 9.83321 14.3527C10.016 14.4286 10.212 14.4677 10.4099 14.4675C10.8071 14.4658 11.1874 14.3067 11.4674 14.025L16.3724 9.1275L15.3074 8.0625L10.4099 12.9675L8.69244 11.25Z" fill="white"/>
</svg>
