<svg width="24" height="24" viewBox="0 0 24 24" fill="none" xmlns="http://www.w3.org/2000/svg">
<path d="M9.73052 11.4906L8.6394 12.4504L11.2575 15.3685L11.2626 15.3634L11.2661 15.3685L15.9612 10.5971L15.1232 9.49561L11.3072 12.6359L9.73052 11.4906Z" fill="white"/>
<path d="M12 0C5.37289 0 0.000488281 5.37288 0.000488281 11.9998C0.000488281 18.6266 5.37289 24 12 24C18.6271 24 24 18.627 24 11.9998C24 5.37256 18.6272 0 12 0ZM12.0002 18.6309C5.82545 18.6309 5.38561 8.18352 5.38561 8.18352L12.0001 5.36856H12.0002L18.6147 8.18352C18.6147 8.18352 18.1749 18.6309 12.0002 18.6309Z" fill="white"/>
</svg>
