<svg width="24" height="24" viewBox="0 0 24 24" fill="none" xmlns="http://www.w3.org/2000/svg">
<path d="M3 6.75009H13.6289C13.7841 7.18861 14.0714 7.56826 14.4512 7.83676C14.8311 8.10527 15.2848 8.24945 15.75 8.24945C16.2152 8.24945 16.6689 8.10527 17.0488 7.83676C17.4286 7.56826 17.7159 7.18861 17.8711 6.75009H21C21.1989 6.75009 21.3897 6.67107 21.5303 6.53042C21.671 6.38977 21.75 6.199 21.75 6.00009C21.75 5.80118 21.671 5.61041 21.5303 5.46976C21.3897 5.32911 21.1989 5.25009 21 5.25009H17.8711C17.7159 4.81157 17.4286 4.43193 17.0488 4.16342C16.6689 3.89491 16.2152 3.75073 15.75 3.75073C15.2848 3.75073 14.8311 3.89491 14.4512 4.16342C14.0714 4.43193 13.7841 4.81157 13.6289 5.25009H3C2.80109 5.25009 2.61032 5.32911 2.46967 5.46976C2.32902 5.61041 2.25 5.80118 2.25 6.00009C2.25 6.199 2.32902 6.38977 2.46967 6.53042C2.61032 6.67107 2.80109 6.75009 3 6.75009V6.75009Z" fill="black"/>
<path d="M21 17.2501H17.8711C17.7159 16.8116 17.4286 16.4319 17.0488 16.1634C16.6689 15.8949 16.2152 15.7507 15.75 15.7507C15.2848 15.7507 14.8311 15.8949 14.4512 16.1634C14.0714 16.4319 13.7841 16.8116 13.6289 17.2501H3C2.80109 17.2501 2.61032 17.3291 2.46967 17.4698C2.32902 17.6104 2.25 17.8012 2.25 18.0001C2.25 18.199 2.32902 18.3898 2.46967 18.5304C2.61032 18.6711 2.80109 18.7501 3 18.7501H13.6289C13.7841 19.1886 14.0714 19.5683 14.4512 19.8368C14.8311 20.1053 15.2848 20.2495 15.75 20.2495C16.2152 20.2495 16.6689 20.1053 17.0488 19.8368C17.4286 19.5683 17.7159 19.1886 17.8711 18.7501H21C21.1989 18.7501 21.3897 18.6711 21.5303 18.5304C21.671 18.3898 21.75 18.199 21.75 18.0001C21.75 17.8012 21.671 17.6104 21.5303 17.4698C21.3897 17.3291 21.1989 17.2501 21 17.2501Z" fill="black"/>
<path d="M21 11.2501H10.3711C10.2159 10.8116 9.92861 10.4319 9.54876 10.1634C9.16891 9.89491 8.71517 9.75073 8.25 9.75073C7.78483 9.75073 7.33109 9.89491 6.95124 10.1634C6.57139 10.4319 6.2841 10.8116 6.12891 11.2501H3C2.80109 11.2501 2.61032 11.3291 2.46967 11.4698C2.32902 11.6104 2.25 11.8012 2.25 12.0001C2.25 12.199 2.32902 12.3898 2.46967 12.5304C2.61032 12.6711 2.80109 12.7501 3 12.7501H6.12891C6.2841 13.1886 6.57139 13.5683 6.95124 13.8368C7.33109 14.1053 7.78483 14.2495 8.25 14.2495C8.71517 14.2495 9.16891 14.1053 9.54876 13.8368C9.92861 13.5683 10.2159 13.1886 10.3711 12.7501H21C21.1989 12.7501 21.3897 12.6711 21.5303 12.5304C21.671 12.3898 21.75 12.199 21.75 12.0001C21.75 11.8012 21.671 11.6104 21.5303 11.4698C21.3897 11.3291 21.1989 11.2501 21 11.2501Z" fill="black"/>
</svg>
