<svg width="32" height="32" viewBox="0 0 32 32" fill="none" xmlns="http://www.w3.org/2000/svg">
<path d="M31.3055 14.5684C31.9354 13.9561 32.1578 13.0576 31.8861 12.2223C31.6138 11.387 30.9044 10.7907 30.033 10.6642L22.2849 9.54133C21.9549 9.4934 21.6698 9.28697 21.5224 8.98852L18.0584 1.98668C17.6695 1.19996 16.8801 0.71106 16.0003 0.71106C15.1212 0.71106 14.3318 1.19996 13.9428 1.98668L10.4782 8.98916C10.3309 9.28761 10.0451 9.49404 9.71509 9.54197L1.967 10.6648C1.09621 10.7907 0.386246 11.3877 0.113923 12.2229C-0.15776 13.0582 0.0645839 13.9568 0.694452 14.569L6.30047 20.0192C6.53948 20.2518 6.64905 20.5867 6.59266 20.9139L5.27013 28.6098C5.15287 29.2872 5.331 29.9461 5.77056 30.4657C6.45362 31.2754 7.64607 31.5221 8.59953 31.0223L15.5287 27.3885C15.8183 27.237 16.1829 27.2383 16.4719 27.3885L23.4018 31.0223C23.7388 31.1994 24.0983 31.2888 24.4693 31.2888C25.1465 31.2888 25.7886 30.9885 26.2301 30.4657C26.6703 29.9461 26.8478 29.2859 26.7305 28.6098L25.4073 20.9139C25.351 20.586 25.4605 20.2518 25.6995 20.0192L31.3055 14.5684Z" fill="#6667AB"/>
</svg>
