<svg width="24" height="24" viewBox="0 0 24 24" fill="none" xmlns="http://www.w3.org/2000/svg">
<g clip-path="url(#clip0_2812_497)">
<path d="M23.9156 9.16019C23.7128 8.53618 23.1734 8.08136 22.5239 7.98707L16.3201 7.08553L13.5457 1.46392C13.2553 0.875592 12.6561 0.503082 11.9999 0.503082C11.3437 0.503082 10.7445 0.875592 10.4541 1.46392L7.67966 7.08553L1.47584 7.98707C0.826581 8.08136 0.287123 8.53609 0.0843193 9.16019C-0.118484 9.78429 0.0506193 10.4692 0.520609 10.9272L5.00969 15.3031L3.94999 21.4818C3.83907 22.1285 4.10488 22.7821 4.63571 23.1678C5.16664 23.5534 5.87029 23.6044 6.45112 23.299L12 20.3818L17.5488 23.299C17.801 23.4316 18.0764 23.497 18.3508 23.497C18.7082 23.497 19.0639 23.386 19.3643 23.1678C19.8951 22.7821 20.1609 22.1285 20.05 21.4818L18.9903 15.3031L23.4794 10.9272C23.9492 10.4692 24.1183 9.7842 23.9156 9.16019ZM15.9349 13.4668C15.5286 13.8628 15.3432 14.4333 15.4391 14.9925L16.0616 18.622L12.8021 16.9083C12.5511 16.7764 12.2756 16.7104 12 16.7104C11.7243 16.7104 11.4489 16.7764 11.1978 16.9083L7.93831 18.622L8.56077 14.9926C8.6567 14.4334 8.47131 13.8628 8.06501 13.4669L5.42805 10.8966L9.07222 10.3669C9.63374 10.2854 10.1191 9.9327 10.3701 9.42401L11.9999 6.12185L13.6296 9.42401C13.8807 9.9327 14.366 10.2854 14.9276 10.3669L18.5717 10.8966L15.9349 13.4668Z" fill="#D9D9D9"/>
</g>
<defs>
<clipPath id="clip0_2812_497">
<rect width="24" height="24" fill="white"/>
</clipPath>
</defs>
</svg>
