<svg width="6" height="6" viewBox="0 0 6 6" fill="none" xmlns="http://www.w3.org/2000/svg">
<path d="M3.22281 0.145134L3.95733 1.70318C3.99362 1.77995 4.06357 1.83326 4.1445 1.84567L5.78681 2.09557C5.99082 2.12667 6.07218 2.38898 5.92467 2.53959L4.73633 3.75229C4.67779 3.81205 4.65101 3.89831 4.66477 3.98273L4.94531 5.69507C4.98014 5.90773 4.76692 6.06998 4.58457 5.96948L3.11569 5.16096C3.04325 5.12112 2.95675 5.12112 2.88431 5.16096L1.41543 5.96948C1.23294 6.06983 1.01986 5.90773 1.05469 5.69507L1.33523 3.98273C1.34914 3.89831 1.32235 3.81205 1.26367 3.75229L0.0753335 2.53959C-0.0721841 2.38898 0.00918463 2.12652 0.213192 2.09557L1.8555 1.84567C1.93642 1.83342 2.00652 1.7801 2.04267 1.70318L2.77719 0.145134C2.86807 -0.0483779 3.13149 -0.0483779 3.22281 0.145134Z" fill="#FFC843"/>
</svg>
