<svg width="24" height="24" viewBox="0 0 24 24" fill="none" xmlns="http://www.w3.org/2000/svg">
<g clip-path="url(#clip0_2812_495)">
<path d="M13.1589 1.24454L15.8658 6.7294C16.054 7.11088 16.418 7.37521 16.839 7.43628L22.8921 8.31588C23.9524 8.47008 24.3754 9.7727 23.6085 10.5201L19.2285 14.7895C18.9241 15.0863 18.7849 15.5144 18.857 15.9334L19.8908 21.9619C20.072 23.0178 18.9636 23.8228 18.0155 23.3246L12.6017 20.4786C12.2252 20.2808 11.7752 20.2808 11.3987 20.4786L5.98492 23.3246C5.03674 23.8233 3.92835 23.0178 4.10958 21.9619L5.14337 15.9334C5.21546 15.5144 5.07628 15.0863 4.7719 14.7895L0.391929 10.5201C-0.37503 9.7722 0.0479991 8.46957 1.10832 8.31588L7.16139 7.43628C7.58242 7.37521 7.94637 7.11088 8.13461 6.7294L10.8415 1.24454C11.3151 0.283842 12.6848 0.283842 13.1589 1.24454Z" fill="#FFC843"/>
</g>
<defs>
<clipPath id="clip0_2812_495">
<rect width="24" height="24" fill="white"/>
</clipPath>
</defs>
</svg>
