<svg width="40" height="40" viewBox="0 0 40 40" fill="none" xmlns="http://www.w3.org/2000/svg">
<path d="M29.2 30.7375C29.2 32.4643 27.8585 33.8777 26.1609 33.9925L25.9375 34H15.0625C13.3357 34 11.9223 32.6585 11.8075 30.9609L11.8 30.7375V8.2625C11.8 6.53575 13.1415 5.12231 14.8391 5.00753L15.0625 5H25.9375C27.6643 5 29.0777 6.34148 29.1925 8.03913L29.2 8.2625V30.7375ZM30.65 9.35H31.7375C33.4643 9.35 34.8777 10.6915 34.9925 12.3891L35 12.6125V26.3875C35 28.1143 33.6585 29.5277 31.9609 29.6425L31.7375 29.65H30.65V9.35ZM10.35 29.65H9.2625C7.53575 29.65 6.12231 28.3085 6.00753 26.6109L6 26.3875V12.6125C6 10.8857 7.34148 9.47232 9.03913 9.35753L9.2625 9.35H10.35V29.65Z" fill="#A2A2A2"/>
</svg>
