<svg width="24" height="24" viewBox="0 0 24 24" fill="none" xmlns="http://www.w3.org/2000/svg">
<path d="M20.5 16.1401C20.5002 16.4167 20.422 16.6868 20.2757 16.9142C20.1294 17.1417 19.9221 17.3157 19.6814 17.4131C19.4407 17.5104 19.1781 17.5264 18.9287 17.459C18.6794 17.3915 18.4551 17.2438 18.2858 17.0356L12.4999 9.92178L6.71396 17.0349C6.49333 17.3061 6.18157 17.472 5.84728 17.4959C5.51298 17.5199 5.18352 17.4 4.93138 17.1627C4.67924 16.9254 4.52508 16.5901 4.5028 16.2305C4.48052 15.8709 4.59195 15.5165 4.81258 15.2453L11.5495 6.96369C11.6681 6.81803 11.8142 6.70131 11.9781 6.62134C12.142 6.54137 12.3199 6.5 12.4999 6.5C12.6799 6.5 12.8578 6.54137 13.0217 6.62134C13.1856 6.70131 13.3317 6.81803 13.4503 6.96369L20.1872 15.2453C20.3893 15.4926 20.5006 15.8108 20.5 16.1401V16.1401Z" fill="black"/>
</svg>
