<svg width="20" height="20" viewBox="0 0 20 20" fill="none" xmlns="http://www.w3.org/2000/svg">
<path d="M15.4839 12.4521C15.0479 12.8981 14.4409 12.9331 13.9079 12.4521L9.99995 8.70506L6.09195 12.4521C5.55895 12.9331 4.95095 12.8981 4.51795 12.4521C4.08195 12.0071 4.10995 11.2551 4.51795 10.8371C4.92395 10.4191 9.21295 6.33506 9.21295 6.33506C9.31508 6.2292 9.43749 6.14501 9.57288 6.08751C9.70827 6.03001 9.85385 6.00037 10.0009 6.00037C10.148 6.00037 10.2936 6.03001 10.429 6.08751C10.5644 6.14501 10.6868 6.2292 10.7889 6.33506C10.7889 6.33506 15.0759 10.4191 15.4839 10.8371C15.8929 11.2551 15.9199 12.0071 15.4839 12.4521Z" fill="black"/>
</svg>
