<svg width="30" height="30" viewBox="0 0 30 30" fill="none" xmlns="http://www.w3.org/2000/svg">
<path d="M9.80897 15.0659C4.61671 17.1354 0.933839 22.2026 0.933845 28.1249C0.933373 28.2487 0.957395 28.3713 1.00453 28.4857C1.05166 28.6001 1.12096 28.704 1.20845 28.7915C1.29594 28.879 1.39988 28.9483 1.51428 28.9954C1.62868 29.0425 1.75128 29.0666 1.87501 29.0661H28.125C28.3736 29.0651 28.6117 28.9654 28.7868 28.7889C28.9619 28.6124 29.0598 28.3736 29.0588 28.1249C29.0588 22.2032 25.377 17.1358 20.1856 15.0659C18.7499 16.1916 16.9489 16.8713 14.9963 16.8713C13.0434 16.8713 11.2433 16.192 9.80897 15.0659Z" fill="#A2A2A2"/>
<path d="M14.9965 0.941162C10.8654 0.941162 7.50196 4.30467 7.50195 8.43567C7.50196 12.5667 10.8654 15.9375 14.9965 15.9375C19.1275 15.9375 22.4983 12.5667 22.4983 8.43567C22.4983 4.30467 19.1275 0.941162 14.9965 0.941162Z" fill="#A2A2A2"/>
</svg>
