<svg width="40" height="40" viewBox="0 0 40 40" fill="none" xmlns="http://www.w3.org/2000/svg">
<path d="M31.0734 26.8741L25.4662 24.3269C24.9374 24.0864 24.6087 23.6032 24.6087 23.0656V21.2624C24.7431 21.1131 24.8846 20.9429 25.0307 20.7552C25.758 19.8219 26.3408 18.7829 26.7646 17.6624C27.5928 17.3173 28.1304 16.5733 28.1304 15.7333V13.6C28.1304 13.0864 27.9191 12.5888 27.5435 12.2V9.3632C27.5763 9.06987 27.7055 7.32373 26.3156 5.8832C25.11 4.6336 23.1536 4 20.5 4C17.8464 4 15.89 4.6336 14.6844 5.88267C13.2945 7.3232 13.4237 9.06987 13.4565 9.3632V12.2C13.0809 12.5888 12.8696 13.0864 12.8696 13.6V15.7333C12.8696 16.3824 13.1942 16.9877 13.7482 17.3915C14.2859 19.3259 15.4111 20.7835 15.8043 21.2512V23.016C15.8043 23.5323 15.4944 24.0059 14.9961 24.2533L9.75987 26.8485C8.05711 27.6928 7 29.3109 7 31.0731V32.8C7 35.3312 15.8308 36 20.5 36C25.1692 36 34 35.3312 34 32.8V31.1771C34 29.3435 32.8783 27.6944 31.0734 26.8741Z" fill="#A2A2A2"/>
</svg>
